<?xml version="1.0" encoding="utf-8" standalone="no"?>
<!DOCTYPE svg PUBLIC "-//W3C//DTD SVG 1.1//EN"
  "http://www.w3.org/Graphics/SVG/1.1/DTD/svg11.dtd">
<!-- Created with matplotlib (http://matplotlib.org/) -->
<svg height="288pt" version="1.1" viewBox="0 0 432 288" width="432pt" xmlns="http://www.w3.org/2000/svg" xmlns:xlink="http://www.w3.org/1999/xlink">
 <defs>
  <style type="text/css">
*{stroke-linecap:butt;stroke-linejoin:round;}
  </style>
 </defs>
 <g id="figure_1">
  <g id="patch_1">
   <path d="M 0 288 
L 432 288 
L 432 0 
L 0 0 
z
" style="fill:#ffffff;"/>
  </g>
  <g id="axes_1">
   <g id="patch_2">
    <path d="M 54 252 
L 388.8 252 
L 388.8 34.56 
L 54 34.56 
z
" style="fill:#ffffff;"/>
   </g>
   <g id="matplotlib.axis_1">
    <g id="xtick_1">
     <g id="line2d_1">
      <defs>
       <path d="M 0 0 
L 0 3.5 
" id="me3e38838c3" style="stroke:#000000;stroke-width:0.8;"/>
      </defs>
      <g>
       <use style="stroke:#000000;stroke-width:0.8;" x="54" xlink:href="#me3e38838c3" y="252"/>
      </g>
     </g>
     <g id="text_1">
      <!-- 0.0 -->
      <defs>
       <path d="M 31.78125 66.40625 
Q 24.171875 66.40625 20.328125 58.90625 
Q 16.5 51.421875 16.5 36.375 
Q 16.5 21.390625 20.328125 13.890625 
Q 24.171875 6.390625 31.78125 6.390625 
Q 39.453125 6.390625 43.28125 13.890625 
Q 47.125 21.390625 47.125 36.375 
Q 47.125 51.421875 43.28125 58.90625 
Q 39.453125 66.40625 31.78125 66.40625 
z
M 31.78125 74.21875 
Q 44.046875 74.21875 50.515625 64.515625 
Q 56.984375 54.828125 56.984375 36.375 
Q 56.984375 17.96875 50.515625 8.265625 
Q 44.046875 -1.421875 31.78125 -1.421875 
Q 19.53125 -1.421875 13.0625 8.265625 
Q 6.59375 17.96875 6.59375 36.375 
Q 6.59375 54.828125 13.0625 64.515625 
Q 19.53125 74.21875 31.78125 74.21875 
z
" id="DejaVuSans-30"/>
       <path d="M 10.6875 12.40625 
L 21 12.40625 
L 21 0 
L 10.6875 0 
z
" id="DejaVuSans-2e"/>
      </defs>
      <g transform="translate(46.048437 266.598437)scale(0.1 -0.1)">
       <use xlink:href="#DejaVuSans-30"/>
       <use x="63.623047" xlink:href="#DejaVuSans-2e"/>
       <use x="95.410156" xlink:href="#DejaVuSans-30"/>
      </g>
     </g>
    </g>
    <g id="xtick_2">
     <g id="line2d_2">
      <g>
       <use style="stroke:#000000;stroke-width:0.8;" x="120.96" xlink:href="#me3e38838c3" y="252"/>
      </g>
     </g>
     <g id="text_2">
      <!-- 0.2 -->
      <defs>
       <path d="M 19.1875 8.296875 
L 53.609375 8.296875 
L 53.609375 0 
L 7.328125 0 
L 7.328125 8.296875 
Q 12.9375 14.109375 22.625 23.890625 
Q 32.328125 33.6875 34.8125 36.53125 
Q 39.546875 41.84375 41.421875 45.53125 
Q 43.3125 49.21875 43.3125 52.78125 
Q 43.3125 58.59375 39.234375 62.25 
Q 35.15625 65.921875 28.609375 65.921875 
Q 23.96875 65.921875 18.8125 64.3125 
Q 13.671875 62.703125 7.8125 59.421875 
L 7.8125 69.390625 
Q 13.765625 71.78125 18.9375 73 
Q 24.125 74.21875 28.421875 74.21875 
Q 39.75 74.21875 46.484375 68.546875 
Q 53.21875 62.890625 53.21875 53.421875 
Q 53.21875 48.921875 51.53125 44.890625 
Q 49.859375 40.875 45.40625 35.40625 
Q 44.1875 33.984375 37.640625 27.21875 
Q 31.109375 20.453125 19.1875 8.296875 
z
" id="DejaVuSans-32"/>
      </defs>
      <g transform="translate(113.008438 266.598437)scale(0.1 -0.1)">
       <use xlink:href="#DejaVuSans-30"/>
       <use x="63.623047" xlink:href="#DejaVuSans-2e"/>
       <use x="95.410156" xlink:href="#DejaVuSans-32"/>
      </g>
     </g>
    </g>
    <g id="xtick_3">
     <g id="line2d_3">
      <g>
       <use style="stroke:#000000;stroke-width:0.8;" x="187.92" xlink:href="#me3e38838c3" y="252"/>
      </g>
     </g>
     <g id="text_3">
      <!-- 0.4 -->
      <defs>
       <path d="M 37.796875 64.3125 
L 12.890625 25.390625 
L 37.796875 25.390625 
z
M 35.203125 72.90625 
L 47.609375 72.90625 
L 47.609375 25.390625 
L 58.015625 25.390625 
L 58.015625 17.1875 
L 47.609375 17.1875 
L 47.609375 0 
L 37.796875 0 
L 37.796875 17.1875 
L 4.890625 17.1875 
L 4.890625 26.703125 
z
" id="DejaVuSans-34"/>
      </defs>
      <g transform="translate(179.968438 266.598437)scale(0.1 -0.1)">
       <use xlink:href="#DejaVuSans-30"/>
       <use x="63.623047" xlink:href="#DejaVuSans-2e"/>
       <use x="95.410156" xlink:href="#DejaVuSans-34"/>
      </g>
     </g>
    </g>
    <g id="xtick_4">
     <g id="line2d_4">
      <g>
       <use style="stroke:#000000;stroke-width:0.8;" x="254.88" xlink:href="#me3e38838c3" y="252"/>
      </g>
     </g>
     <g id="text_4">
      <!-- 0.6 -->
      <defs>
       <path d="M 33.015625 40.375 
Q 26.375 40.375 22.484375 35.828125 
Q 18.609375 31.296875 18.609375 23.390625 
Q 18.609375 15.53125 22.484375 10.953125 
Q 26.375 6.390625 33.015625 6.390625 
Q 39.65625 6.390625 43.53125 10.953125 
Q 47.40625 15.53125 47.40625 23.390625 
Q 47.40625 31.296875 43.53125 35.828125 
Q 39.65625 40.375 33.015625 40.375 
z
M 52.59375 71.296875 
L 52.59375 62.3125 
Q 48.875 64.0625 45.09375 64.984375 
Q 41.3125 65.921875 37.59375 65.921875 
Q 27.828125 65.921875 22.671875 59.328125 
Q 17.53125 52.734375 16.796875 39.40625 
Q 19.671875 43.65625 24.015625 45.921875 
Q 28.375 48.1875 33.59375 48.1875 
Q 44.578125 48.1875 50.953125 41.515625 
Q 57.328125 34.859375 57.328125 23.390625 
Q 57.328125 12.15625 50.6875 5.359375 
Q 44.046875 -1.421875 33.015625 -1.421875 
Q 20.359375 -1.421875 13.671875 8.265625 
Q 6.984375 17.96875 6.984375 36.375 
Q 6.984375 53.65625 15.1875 63.9375 
Q 23.390625 74.21875 37.203125 74.21875 
Q 40.921875 74.21875 44.703125 73.484375 
Q 48.484375 72.75 52.59375 71.296875 
z
" id="DejaVuSans-36"/>
      </defs>
      <g transform="translate(246.928438 266.598437)scale(0.1 -0.1)">
       <use xlink:href="#DejaVuSans-30"/>
       <use x="63.623047" xlink:href="#DejaVuSans-2e"/>
       <use x="95.410156" xlink:href="#DejaVuSans-36"/>
      </g>
     </g>
    </g>
    <g id="xtick_5">
     <g id="line2d_5">
      <g>
       <use style="stroke:#000000;stroke-width:0.8;" x="321.84" xlink:href="#me3e38838c3" y="252"/>
      </g>
     </g>
     <g id="text_5">
      <!-- 0.8 -->
      <defs>
       <path d="M 31.78125 34.625 
Q 24.75 34.625 20.71875 30.859375 
Q 16.703125 27.09375 16.703125 20.515625 
Q 16.703125 13.921875 20.71875 10.15625 
Q 24.75 6.390625 31.78125 6.390625 
Q 38.8125 6.390625 42.859375 10.171875 
Q 46.921875 13.96875 46.921875 20.515625 
Q 46.921875 27.09375 42.890625 30.859375 
Q 38.875 34.625 31.78125 34.625 
z
M 21.921875 38.8125 
Q 15.578125 40.375 12.03125 44.71875 
Q 8.5 49.078125 8.5 55.328125 
Q 8.5 64.0625 14.71875 69.140625 
Q 20.953125 74.21875 31.78125 74.21875 
Q 42.671875 74.21875 48.875 69.140625 
Q 55.078125 64.0625 55.078125 55.328125 
Q 55.078125 49.078125 51.53125 44.71875 
Q 48 40.375 41.703125 38.8125 
Q 48.828125 37.15625 52.796875 32.3125 
Q 56.78125 27.484375 56.78125 20.515625 
Q 56.78125 9.90625 50.3125 4.234375 
Q 43.84375 -1.421875 31.78125 -1.421875 
Q 19.734375 -1.421875 13.25 4.234375 
Q 6.78125 9.90625 6.78125 20.515625 
Q 6.78125 27.484375 10.78125 32.3125 
Q 14.796875 37.15625 21.921875 38.8125 
z
M 18.3125 54.390625 
Q 18.3125 48.734375 21.84375 45.5625 
Q 25.390625 42.390625 31.78125 42.390625 
Q 38.140625 42.390625 41.71875 45.5625 
Q 45.3125 48.734375 45.3125 54.390625 
Q 45.3125 60.0625 41.71875 63.234375 
Q 38.140625 66.40625 31.78125 66.40625 
Q 25.390625 66.40625 21.84375 63.234375 
Q 18.3125 60.0625 18.3125 54.390625 
z
" id="DejaVuSans-38"/>
      </defs>
      <g transform="translate(313.888438 266.598437)scale(0.1 -0.1)">
       <use xlink:href="#DejaVuSans-30"/>
       <use x="63.623047" xlink:href="#DejaVuSans-2e"/>
       <use x="95.410156" xlink:href="#DejaVuSans-38"/>
      </g>
     </g>
    </g>
    <g id="xtick_6">
     <g id="line2d_6">
      <g>
       <use style="stroke:#000000;stroke-width:0.8;" x="388.8" xlink:href="#me3e38838c3" y="252"/>
      </g>
     </g>
     <g id="text_6">
      <!-- 1.0 -->
      <defs>
       <path d="M 12.40625 8.296875 
L 28.515625 8.296875 
L 28.515625 63.921875 
L 10.984375 60.40625 
L 10.984375 69.390625 
L 28.421875 72.90625 
L 38.28125 72.90625 
L 38.28125 8.296875 
L 54.390625 8.296875 
L 54.390625 0 
L 12.40625 0 
z
" id="DejaVuSans-31"/>
      </defs>
      <g transform="translate(380.848437 266.598437)scale(0.1 -0.1)">
       <use xlink:href="#DejaVuSans-31"/>
       <use x="63.623047" xlink:href="#DejaVuSans-2e"/>
       <use x="95.410156" xlink:href="#DejaVuSans-30"/>
      </g>
     </g>
    </g>
    <g id="text_7">
     <!-- False Positive Rate -->
     <defs>
      <path d="M 9.8125 72.90625 
L 51.703125 72.90625 
L 51.703125 64.59375 
L 19.671875 64.59375 
L 19.671875 43.109375 
L 48.578125 43.109375 
L 48.578125 34.8125 
L 19.671875 34.8125 
L 19.671875 0 
L 9.8125 0 
z
" id="DejaVuSans-46"/>
      <path d="M 34.28125 27.484375 
Q 23.390625 27.484375 19.1875 25 
Q 14.984375 22.515625 14.984375 16.5 
Q 14.984375 11.71875 18.140625 8.90625 
Q 21.296875 6.109375 26.703125 6.109375 
Q 34.1875 6.109375 38.703125 11.40625 
Q 43.21875 16.703125 43.21875 25.484375 
L 43.21875 27.484375 
z
M 52.203125 31.203125 
L 52.203125 0 
L 43.21875 0 
L 43.21875 8.296875 
Q 40.140625 3.328125 35.546875 0.953125 
Q 30.953125 -1.421875 24.3125 -1.421875 
Q 15.921875 -1.421875 10.953125 3.296875 
Q 6 8.015625 6 15.921875 
Q 6 25.140625 12.171875 29.828125 
Q 18.359375 34.515625 30.609375 34.515625 
L 43.21875 34.515625 
L 43.21875 35.40625 
Q 43.21875 41.609375 39.140625 45 
Q 35.0625 48.390625 27.6875 48.390625 
Q 23 48.390625 18.546875 47.265625 
Q 14.109375 46.140625 10.015625 43.890625 
L 10.015625 52.203125 
Q 14.9375 54.109375 19.578125 55.046875 
Q 24.21875 56 28.609375 56 
Q 40.484375 56 46.34375 49.84375 
Q 52.203125 43.703125 52.203125 31.203125 
z
" id="DejaVuSans-61"/>
      <path d="M 9.421875 75.984375 
L 18.40625 75.984375 
L 18.40625 0 
L 9.421875 0 
z
" id="DejaVuSans-6c"/>
      <path d="M 44.28125 53.078125 
L 44.28125 44.578125 
Q 40.484375 46.53125 36.375 47.5 
Q 32.28125 48.484375 27.875 48.484375 
Q 21.1875 48.484375 17.84375 46.4375 
Q 14.5 44.390625 14.5 40.28125 
Q 14.5 37.15625 16.890625 35.375 
Q 19.28125 33.59375 26.515625 31.984375 
L 29.59375 31.296875 
Q 39.15625 29.25 43.1875 25.515625 
Q 47.21875 21.78125 47.21875 15.09375 
Q 47.21875 7.46875 41.1875 3.015625 
Q 35.15625 -1.421875 24.609375 -1.421875 
Q 20.21875 -1.421875 15.453125 -0.5625 
Q 10.6875 0.296875 5.421875 2 
L 5.421875 11.28125 
Q 10.40625 8.6875 15.234375 7.390625 
Q 20.0625 6.109375 24.8125 6.109375 
Q 31.15625 6.109375 34.5625 8.28125 
Q 37.984375 10.453125 37.984375 14.40625 
Q 37.984375 18.0625 35.515625 20.015625 
Q 33.0625 21.96875 24.703125 23.78125 
L 21.578125 24.515625 
Q 13.234375 26.265625 9.515625 29.90625 
Q 5.8125 33.546875 5.8125 39.890625 
Q 5.8125 47.609375 11.28125 51.796875 
Q 16.75 56 26.8125 56 
Q 31.78125 56 36.171875 55.265625 
Q 40.578125 54.546875 44.28125 53.078125 
z
" id="DejaVuSans-73"/>
      <path d="M 56.203125 29.59375 
L 56.203125 25.203125 
L 14.890625 25.203125 
Q 15.484375 15.921875 20.484375 11.0625 
Q 25.484375 6.203125 34.421875 6.203125 
Q 39.59375 6.203125 44.453125 7.46875 
Q 49.3125 8.734375 54.109375 11.28125 
L 54.109375 2.78125 
Q 49.265625 0.734375 44.1875 -0.34375 
Q 39.109375 -1.421875 33.890625 -1.421875 
Q 20.796875 -1.421875 13.15625 6.1875 
Q 5.515625 13.8125 5.515625 26.8125 
Q 5.515625 40.234375 12.765625 48.109375 
Q 20.015625 56 32.328125 56 
Q 43.359375 56 49.78125 48.890625 
Q 56.203125 41.796875 56.203125 29.59375 
z
M 47.21875 32.234375 
Q 47.125 39.59375 43.09375 43.984375 
Q 39.0625 48.390625 32.421875 48.390625 
Q 24.90625 48.390625 20.390625 44.140625 
Q 15.875 39.890625 15.1875 32.171875 
z
" id="DejaVuSans-65"/>
      <path id="DejaVuSans-20"/>
      <path d="M 19.671875 64.796875 
L 19.671875 37.40625 
L 32.078125 37.40625 
Q 38.96875 37.40625 42.71875 40.96875 
Q 46.484375 44.53125 46.484375 51.125 
Q 46.484375 57.671875 42.71875 61.234375 
Q 38.96875 64.796875 32.078125 64.796875 
z
M 9.8125 72.90625 
L 32.078125 72.90625 
Q 44.34375 72.90625 50.609375 67.359375 
Q 56.890625 61.8125 56.890625 51.125 
Q 56.890625 40.328125 50.609375 34.8125 
Q 44.34375 29.296875 32.078125 29.296875 
L 19.671875 29.296875 
L 19.671875 0 
L 9.8125 0 
z
" id="DejaVuSans-50"/>
      <path d="M 30.609375 48.390625 
Q 23.390625 48.390625 19.1875 42.75 
Q 14.984375 37.109375 14.984375 27.296875 
Q 14.984375 17.484375 19.15625 11.84375 
Q 23.34375 6.203125 30.609375 6.203125 
Q 37.796875 6.203125 41.984375 11.859375 
Q 46.1875 17.53125 46.1875 27.296875 
Q 46.1875 37.015625 41.984375 42.703125 
Q 37.796875 48.390625 30.609375 48.390625 
z
M 30.609375 56 
Q 42.328125 56 49.015625 48.375 
Q 55.71875 40.765625 55.71875 27.296875 
Q 55.71875 13.875 49.015625 6.21875 
Q 42.328125 -1.421875 30.609375 -1.421875 
Q 18.84375 -1.421875 12.171875 6.21875 
Q 5.515625 13.875 5.515625 27.296875 
Q 5.515625 40.765625 12.171875 48.375 
Q 18.84375 56 30.609375 56 
z
" id="DejaVuSans-6f"/>
      <path d="M 9.421875 54.6875 
L 18.40625 54.6875 
L 18.40625 0 
L 9.421875 0 
z
M 9.421875 75.984375 
L 18.40625 75.984375 
L 18.40625 64.59375 
L 9.421875 64.59375 
z
" id="DejaVuSans-69"/>
      <path d="M 18.3125 70.21875 
L 18.3125 54.6875 
L 36.8125 54.6875 
L 36.8125 47.703125 
L 18.3125 47.703125 
L 18.3125 18.015625 
Q 18.3125 11.328125 20.140625 9.421875 
Q 21.96875 7.515625 27.59375 7.515625 
L 36.8125 7.515625 
L 36.8125 0 
L 27.59375 0 
Q 17.1875 0 13.234375 3.875 
Q 9.28125 7.765625 9.28125 18.015625 
L 9.28125 47.703125 
L 2.6875 47.703125 
L 2.6875 54.6875 
L 9.28125 54.6875 
L 9.28125 70.21875 
z
" id="DejaVuSans-74"/>
      <path d="M 2.984375 54.6875 
L 12.5 54.6875 
L 29.59375 8.796875 
L 46.6875 54.6875 
L 56.203125 54.6875 
L 35.6875 0 
L 23.484375 0 
z
" id="DejaVuSans-76"/>
      <path d="M 44.390625 34.1875 
Q 47.5625 33.109375 50.5625 29.59375 
Q 53.5625 26.078125 56.59375 19.921875 
L 66.609375 0 
L 56 0 
L 46.6875 18.703125 
Q 43.0625 26.03125 39.671875 28.421875 
Q 36.28125 30.8125 30.421875 30.8125 
L 19.671875 30.8125 
L 19.671875 0 
L 9.8125 0 
L 9.8125 72.90625 
L 32.078125 72.90625 
Q 44.578125 72.90625 50.734375 67.671875 
Q 56.890625 62.453125 56.890625 51.90625 
Q 56.890625 45.015625 53.6875 40.46875 
Q 50.484375 35.9375 44.390625 34.1875 
z
M 19.671875 64.796875 
L 19.671875 38.921875 
L 32.078125 38.921875 
Q 39.203125 38.921875 42.84375 42.21875 
Q 46.484375 45.515625 46.484375 51.90625 
Q 46.484375 58.296875 42.84375 61.546875 
Q 39.203125 64.796875 32.078125 64.796875 
z
" id="DejaVuSans-52"/>
     </defs>
     <g transform="translate(174.194531 280.276563)scale(0.1 -0.1)">
      <use xlink:href="#DejaVuSans-46"/>
      <use x="57.378906" xlink:href="#DejaVuSans-61"/>
      <use x="118.658203" xlink:href="#DejaVuSans-6c"/>
      <use x="146.441406" xlink:href="#DejaVuSans-73"/>
      <use x="198.541016" xlink:href="#DejaVuSans-65"/>
      <use x="260.064453" xlink:href="#DejaVuSans-20"/>
      <use x="291.851562" xlink:href="#DejaVuSans-50"/>
      <use x="352.107422" xlink:href="#DejaVuSans-6f"/>
      <use x="413.289062" xlink:href="#DejaVuSans-73"/>
      <use x="465.388672" xlink:href="#DejaVuSans-69"/>
      <use x="493.171875" xlink:href="#DejaVuSans-74"/>
      <use x="532.380859" xlink:href="#DejaVuSans-69"/>
      <use x="560.164062" xlink:href="#DejaVuSans-76"/>
      <use x="619.34375" xlink:href="#DejaVuSans-65"/>
      <use x="680.867188" xlink:href="#DejaVuSans-20"/>
      <use x="712.654297" xlink:href="#DejaVuSans-52"/>
      <use x="782.105469" xlink:href="#DejaVuSans-61"/>
      <use x="843.384766" xlink:href="#DejaVuSans-74"/>
      <use x="882.59375" xlink:href="#DejaVuSans-65"/>
     </g>
    </g>
   </g>
   <g id="matplotlib.axis_2">
    <g id="ytick_1">
     <g id="line2d_7">
      <defs>
       <path d="M 0 0 
L -3.5 0 
" id="mfe07475b9a" style="stroke:#000000;stroke-width:0.8;"/>
      </defs>
      <g>
       <use style="stroke:#000000;stroke-width:0.8;" x="54" xlink:href="#mfe07475b9a" y="252"/>
      </g>
     </g>
     <g id="text_8">
      <!-- 0.0 -->
      <g transform="translate(31.096875 255.799219)scale(0.1 -0.1)">
       <use xlink:href="#DejaVuSans-30"/>
       <use x="63.623047" xlink:href="#DejaVuSans-2e"/>
       <use x="95.410156" xlink:href="#DejaVuSans-30"/>
      </g>
     </g>
    </g>
    <g id="ytick_2">
     <g id="line2d_8">
      <g>
       <use style="stroke:#000000;stroke-width:0.8;" x="54" xlink:href="#mfe07475b9a" y="210.582857"/>
      </g>
     </g>
     <g id="text_9">
      <!-- 0.2 -->
      <g transform="translate(31.096875 214.382076)scale(0.1 -0.1)">
       <use xlink:href="#DejaVuSans-30"/>
       <use x="63.623047" xlink:href="#DejaVuSans-2e"/>
       <use x="95.410156" xlink:href="#DejaVuSans-32"/>
      </g>
     </g>
    </g>
    <g id="ytick_3">
     <g id="line2d_9">
      <g>
       <use style="stroke:#000000;stroke-width:0.8;" x="54" xlink:href="#mfe07475b9a" y="169.165714"/>
      </g>
     </g>
     <g id="text_10">
      <!-- 0.4 -->
      <g transform="translate(31.096875 172.964933)scale(0.1 -0.1)">
       <use xlink:href="#DejaVuSans-30"/>
       <use x="63.623047" xlink:href="#DejaVuSans-2e"/>
       <use x="95.410156" xlink:href="#DejaVuSans-34"/>
      </g>
     </g>
    </g>
    <g id="ytick_4">
     <g id="line2d_10">
      <g>
       <use style="stroke:#000000;stroke-width:0.8;" x="54" xlink:href="#mfe07475b9a" y="127.748571"/>
      </g>
     </g>
     <g id="text_11">
      <!-- 0.6 -->
      <g transform="translate(31.096875 131.54779)scale(0.1 -0.1)">
       <use xlink:href="#DejaVuSans-30"/>
       <use x="63.623047" xlink:href="#DejaVuSans-2e"/>
       <use x="95.410156" xlink:href="#DejaVuSans-36"/>
      </g>
     </g>
    </g>
    <g id="ytick_5">
     <g id="line2d_11">
      <g>
       <use style="stroke:#000000;stroke-width:0.8;" x="54" xlink:href="#mfe07475b9a" y="86.331429"/>
      </g>
     </g>
     <g id="text_12">
      <!-- 0.8 -->
      <g transform="translate(31.096875 90.130647)scale(0.1 -0.1)">
       <use xlink:href="#DejaVuSans-30"/>
       <use x="63.623047" xlink:href="#DejaVuSans-2e"/>
       <use x="95.410156" xlink:href="#DejaVuSans-38"/>
      </g>
     </g>
    </g>
    <g id="ytick_6">
     <g id="line2d_12">
      <g>
       <use style="stroke:#000000;stroke-width:0.8;" x="54" xlink:href="#mfe07475b9a" y="44.914286"/>
      </g>
     </g>
     <g id="text_13">
      <!-- 1.0 -->
      <g transform="translate(31.096875 48.713504)scale(0.1 -0.1)">
       <use xlink:href="#DejaVuSans-31"/>
       <use x="63.623047" xlink:href="#DejaVuSans-2e"/>
       <use x="95.410156" xlink:href="#DejaVuSans-30"/>
      </g>
     </g>
    </g>
    <g id="text_14">
     <!-- True Positive Rate -->
     <defs>
      <path d="M -0.296875 72.90625 
L 61.375 72.90625 
L 61.375 64.59375 
L 35.5 64.59375 
L 35.5 0 
L 25.59375 0 
L 25.59375 64.59375 
L -0.296875 64.59375 
z
" id="DejaVuSans-54"/>
      <path d="M 41.109375 46.296875 
Q 39.59375 47.171875 37.8125 47.578125 
Q 36.03125 48 33.890625 48 
Q 26.265625 48 22.1875 43.046875 
Q 18.109375 38.09375 18.109375 28.8125 
L 18.109375 0 
L 9.078125 0 
L 9.078125 54.6875 
L 18.109375 54.6875 
L 18.109375 46.1875 
Q 20.953125 51.171875 25.484375 53.578125 
Q 30.03125 56 36.53125 56 
Q 37.453125 56 38.578125 55.875 
Q 39.703125 55.765625 41.0625 55.515625 
z
" id="DejaVuSans-72"/>
      <path d="M 8.5 21.578125 
L 8.5 54.6875 
L 17.484375 54.6875 
L 17.484375 21.921875 
Q 17.484375 14.15625 20.5 10.265625 
Q 23.53125 6.390625 29.59375 6.390625 
Q 36.859375 6.390625 41.078125 11.03125 
Q 45.3125 15.671875 45.3125 23.6875 
L 45.3125 54.6875 
L 54.296875 54.6875 
L 54.296875 0 
L 45.3125 0 
L 45.3125 8.40625 
Q 42.046875 3.421875 37.71875 1 
Q 33.40625 -1.421875 27.6875 -1.421875 
Q 18.265625 -1.421875 13.375 4.4375 
Q 8.5 10.296875 8.5 21.578125 
z
M 31.109375 56 
z
" id="DejaVuSans-75"/>
     </defs>
     <g transform="translate(25.017187 188.826094)rotate(-90)scale(0.1 -0.1)">
      <use xlink:href="#DejaVuSans-54"/>
      <use x="60.865234" xlink:href="#DejaVuSans-72"/>
      <use x="101.978516" xlink:href="#DejaVuSans-75"/>
      <use x="165.357422" xlink:href="#DejaVuSans-65"/>
      <use x="226.880859" xlink:href="#DejaVuSans-20"/>
      <use x="258.667969" xlink:href="#DejaVuSans-50"/>
      <use x="318.923828" xlink:href="#DejaVuSans-6f"/>
      <use x="380.105469" xlink:href="#DejaVuSans-73"/>
      <use x="432.205078" xlink:href="#DejaVuSans-69"/>
      <use x="459.988281" xlink:href="#DejaVuSans-74"/>
      <use x="499.197266" xlink:href="#DejaVuSans-69"/>
      <use x="526.980469" xlink:href="#DejaVuSans-76"/>
      <use x="586.160156" xlink:href="#DejaVuSans-65"/>
      <use x="647.683594" xlink:href="#DejaVuSans-20"/>
      <use x="679.470703" xlink:href="#DejaVuSans-52"/>
      <use x="748.921875" xlink:href="#DejaVuSans-61"/>
      <use x="810.201172" xlink:href="#DejaVuSans-74"/>
      <use x="849.410156" xlink:href="#DejaVuSans-65"/>
     </g>
    </g>
   </g>
   <g id="line2d_13">
    <path clip-path="url(#pebd8d3082b)" d="M 54 251.864206 
L 54 234.210998 
L 54.229945 233.93941 
L 54.229945 225.112806 
L 54.45989 225.112806 
L 54.45989 215.607232 
L 54.689835 215.607232 
L 54.689835 214.792468 
L 54.91978 214.792468 
L 54.91978 213.434529 
L 55.149725 213.434529 
L 55.149725 211.669208 
L 55.37967 211.669208 
L 55.37967 210.718651 
L 55.609615 210.718651 
L 55.609615 209.224918 
L 55.83956 209.224918 
L 55.83956 205.015307 
L 56.069505 205.015307 
L 56.069505 201.213077 
L 56.299451 201.213077 
L 56.299451 196.324496 
L 56.529396 196.324496 
L 56.529396 195.373939 
L 56.759341 195.373939 
L 56.759341 195.238145 
L 56.989286 195.238145 
L 56.989286 191.435916 
L 57.219231 191.435916 
L 57.219231 186.411541 
L 57.449176 186.411541 
L 57.449176 185.460984 
L 57.679121 185.460984 
L 57.679121 185.189396 
L 57.909066 185.189396 
L 57.909066 184.374632 
L 58.139011 184.374632 
L 58.139011 183.424075 
L 58.368956 183.424075 
L 58.368956 181.794548 
L 58.828846 181.794548 
L 58.828846 181.387166 
L 59.058791 181.387166 
L 59.058791 177.449143 
L 59.288736 177.449143 
L 59.288736 175.27644 
L 59.518681 175.27644 
L 59.518681 174.461677 
L 59.748626 174.461677 
L 59.748626 172.15318 
L 59.978571 172.15318 
L 59.978571 171.066829 
L 60.438462 171.066829 
L 60.438462 170.252066 
L 60.668407 170.252066 
L 60.668407 166.449836 
L 60.898352 166.449836 
L 60.898352 165.635073 
L 61.128297 165.635073 
L 61.128297 165.499279 
L 61.358242 165.499279 
L 61.358242 164.548721 
L 61.588187 164.548721 
L 61.588187 164.005546 
L 61.818132 164.005546 
L 61.818132 163.326576 
L 62.048077 163.326576 
L 62.048077 162.376019 
L 62.278022 162.376019 
L 62.278022 162.240225 
L 62.737912 162.240225 
L 62.737912 160.746492 
L 62.967857 160.746492 
L 62.967857 160.610698 
L 63.427747 160.610698 
L 63.427747 159.524347 
L 63.657692 159.524347 
L 63.657692 158.709583 
L 63.887637 158.709583 
L 63.887637 158.437995 
L 64.117582 158.437995 
L 64.117582 157.487438 
L 64.347527 157.487438 
L 64.347527 156.672674 
L 64.577473 156.672674 
L 64.577473 155.450529 
L 64.807418 155.450529 
L 64.807418 155.043148 
L 65.037363 155.043148 
L 65.037363 153.956796 
L 65.267308 153.956796 
L 65.267308 153.685208 
L 65.497253 153.685208 
L 65.497253 152.870445 
L 65.727198 152.870445 
L 65.727198 152.055681 
L 65.957143 152.055681 
L 65.957143 151.240918 
L 66.417033 151.240918 
L 66.417033 150.426155 
L 66.646978 150.426155 
L 66.646978 148.660834 
L 66.876923 148.660834 
L 66.876923 148.52504 
L 67.106868 148.52504 
L 67.106868 148.253452 
L 67.336813 148.253452 
L 67.336813 147.031307 
L 67.566758 147.031307 
L 67.566758 145.40178 
L 67.796703 145.40178 
L 67.796703 145.130192 
L 68.026648 145.130192 
L 68.026648 144.858604 
L 68.256593 144.858604 
L 68.256593 144.179635 
L 68.486538 144.179635 
L 68.486538 144.043841 
L 68.716484 144.043841 
L 68.716484 143.500665 
L 69.176374 143.500665 
L 69.176374 140.513199 
L 70.096154 140.513199 
L 70.096154 139.970023 
L 70.326099 139.970023 
L 70.326099 139.291054 
L 70.556044 139.291054 
L 70.556044 139.15526 
L 70.785989 139.15526 
L 70.785989 138.47629 
L 71.015934 138.47629 
L 71.015934 138.340496 
L 71.245879 138.340496 
L 71.245879 137.661527 
L 71.475824 137.661527 
L 71.475824 137.254145 
L 71.705769 137.254145 
L 71.705769 136.167794 
L 71.935714 136.167794 
L 71.935714 135.624618 
L 72.165659 135.624618 
L 72.165659 134.538267 
L 72.395604 134.538267 
L 72.395604 134.130885 
L 72.625549 134.130885 
L 72.625549 133.180328 
L 72.855495 133.180328 
L 72.855495 132.90874 
L 73.08544 132.90874 
L 73.08544 132.637152 
L 73.315385 132.637152 
L 73.315385 132.501358 
L 73.775275 132.501358 
L 73.775275 130.328656 
L 74.00522 130.328656 
L 74.00522 128.970717 
L 74.235165 128.970717 
L 74.235165 128.563335 
L 74.46511 128.563335 
L 74.46511 127.748571 
L 74.695055 127.748571 
L 74.695055 127.205396 
L 75.154945 127.205396 
L 75.154945 126.390632 
L 75.38489 126.390632 
L 75.38489 125.983251 
L 75.84478 125.983251 
L 75.84478 125.168487 
L 76.534615 125.168487 
L 76.534615 124.896899 
L 76.994505 124.896899 
L 76.994505 124.353724 
L 77.224451 124.353724 
L 77.224451 124.21793 
L 77.454396 124.21793 
L 77.454396 123.946342 
L 77.684341 123.946342 
L 77.684341 123.403166 
L 77.914286 123.403166 
L 77.914286 122.859991 
L 78.144231 122.859991 
L 78.144231 122.724197 
L 78.604121 122.724197 
L 78.604121 122.181021 
L 78.834066 122.181021 
L 78.834066 121.502052 
L 79.064011 121.502052 
L 79.064011 120.687288 
L 79.293956 120.687288 
L 79.293956 120.551494 
L 79.523901 120.551494 
L 79.523901 119.872525 
L 79.753846 119.872525 
L 79.983791 119.736731 
L 80.213736 119.736731 
L 80.213736 119.057761 
L 80.443681 119.057761 
L 80.443681 118.514585 
L 80.903571 118.514585 
L 80.903571 118.107204 
L 81.363462 118.107204 
L 81.363462 117.564028 
L 81.593407 117.564028 
L 81.593407 117.428234 
L 81.823352 117.428234 
L 81.823352 117.156646 
L 82.053297 117.156646 
L 82.053297 117.020852 
L 82.513187 117.020852 
L 82.513187 116.885059 
L 82.743132 116.885059 
L 82.743132 116.070295 
L 82.973077 116.070295 
L 82.973077 115.391326 
L 83.203022 115.391326 
L 83.203022 115.255532 
L 83.432967 115.255532 
L 83.432967 114.84815 
L 84.122802 114.84815 
L 84.122802 114.576562 
L 84.352747 114.576562 
L 84.352747 114.304974 
L 84.812637 114.304974 
L 84.812637 114.033386 
L 85.042582 114.033386 
L 85.042582 113.897593 
L 85.272527 113.897593 
L 85.272527 113.490211 
L 85.732418 113.490211 
L 85.732418 113.218623 
L 85.962363 113.218623 
L 85.962363 112.811241 
L 86.192308 112.811241 
L 86.192308 112.539653 
L 86.652198 112.539653 
L 86.652198 112.132272 
L 87.342033 112.132272 
L 87.342033 111.860684 
L 87.571978 111.860684 
L 87.571978 111.72489 
L 88.261813 111.72489 
L 88.261813 111.181714 
L 88.491758 111.181714 
L 88.491758 111.04592 
L 88.951648 111.04592 
L 88.951648 110.231157 
L 89.181593 110.231157 
L 89.181593 109.823775 
L 89.411538 109.823775 
L 89.411538 109.687981 
L 90.101374 109.687981 
L 90.101374 108.737424 
L 90.331319 108.737424 
L 90.331319 108.465836 
L 90.561264 108.465836 
L 90.561264 108.330042 
L 90.791209 108.330042 
L 90.791209 107.786867 
L 91.021154 107.786867 
L 91.021154 107.651073 
L 91.251099 107.651073 
L 91.251099 106.972103 
L 91.481044 106.972103 
L 91.481044 106.564721 
L 91.710989 106.564721 
L 91.710989 106.15734 
L 92.170879 106.15734 
L 92.170879 106.021546 
L 92.400824 106.021546 
L 92.400824 104.7994 
L 93.090659 104.7994 
L 93.090659 103.848843 
L 93.550549 103.848843 
L 93.550549 103.713049 
L 94.01044 103.713049 
L 94.01044 103.441461 
L 94.240385 103.441461 
L 94.240385 102.762492 
L 94.93022 102.762492 
L 94.93022 102.626698 
L 95.160165 102.626698 
L 95.160165 101.540347 
L 95.39011 101.540347 
L 95.39011 101.132965 
L 95.620055 101.132965 
L 95.620055 100.589789 
L 95.85 100.589789 
L 95.85 100.453995 
L 96.999725 100.453995 
L 96.999725 99.91082 
L 97.22967 99.91082 
L 97.22967 99.775026 
L 97.68956 99.775026 
L 97.68956 99.23185 
L 97.919505 99.23185 
L 97.919505 98.960262 
L 98.379396 98.960262 
L 98.379396 98.688674 
L 99.069231 98.688674 
L 99.069231 97.194941 
L 99.299176 97.194941 
L 99.299176 97.059148 
L 99.529121 97.059148 
L 99.529121 96.923354 
L 99.759066 96.923354 
L 99.759066 96.380178 
L 100.678846 96.380178 
L 100.678846 96.244384 
L 100.908791 96.244384 
L 100.908791 95.972796 
L 101.368681 95.972796 
L 101.368681 95.837002 
L 101.598626 95.837002 
L 101.598626 95.565415 
L 101.828571 95.565415 
L 101.828571 95.293827 
L 102.288462 95.293827 
L 102.288462 94.886445 
L 102.748352 94.886445 
L 102.748352 94.750651 
L 102.978297 94.750651 
L 102.978297 94.479063 
L 104.357967 94.479063 
L 104.357967 93.935888 
L 104.587912 93.935888 
L 104.587912 93.800094 
L 104.817857 93.800094 
L 104.817857 93.6643 
L 105.277747 93.6643 
L 105.277747 93.256918 
L 105.967582 93.256918 
L 105.967582 92.849536 
L 106.657418 92.849536 
L 106.657418 92.713742 
L 107.117308 92.713742 
L 107.117308 91.898979 
L 107.347253 91.898979 
L 107.347253 91.355803 
L 107.577198 91.355803 
L 107.577198 91.220009 
L 107.807143 91.220009 
L 107.807143 90.812628 
L 108.037088 90.812628 
L 108.037088 90.676834 
L 108.956868 90.676834 
L 108.956868 90.269452 
L 109.646703 90.269452 
L 109.646703 90.133658 
L 109.876648 90.133658 
L 109.876648 89.183101 
L 110.796429 89.183101 
L 110.796429 89.047307 
L 111.026374 89.047307 
L 111.026374 88.775719 
L 111.256319 88.775719 
L 111.256319 88.368337 
L 113.325824 88.368337 
L 113.325824 88.096749 
L 113.555769 88.096749 
L 113.555769 87.689368 
L 114.015659 87.689368 
L 114.015659 87.553574 
L 114.245604 87.553574 
L 114.245604 87.41778 
L 114.475549 87.41778 
L 114.475549 87.281986 
L 114.93544 87.281986 
L 114.93544 87.146192 
L 115.165385 87.146192 
L 115.165385 86.73881 
L 115.625275 86.73881 
L 115.625275 86.603016 
L 116.31511 86.603016 
L 116.31511 86.467222 
L 116.775 86.467222 
L 116.775 86.331429 
L 117.004945 86.331429 
L 117.004945 86.195635 
L 118.61456 86.195635 
L 118.61456 86.059841 
L 119.074451 86.059841 
L 119.074451 85.924047 
L 119.304396 85.924047 
L 119.304396 85.788253 
L 119.764286 85.788253 
L 119.764286 85.652459 
L 119.994231 85.652459 
L 119.994231 84.973489 
L 120.454121 84.973489 
L 120.454121 84.837696 
L 120.914011 84.837696 
L 120.914011 84.701902 
L 122.523626 84.701902 
L 122.523626 84.430314 
L 123.443407 84.430314 
L 123.443407 84.29452 
L 123.673352 84.29452 
L 123.673352 83.887138 
L 123.903297 83.887138 
L 123.903297 83.751344 
L 124.133242 83.751344 
L 124.133242 83.208169 
L 126.202747 83.208169 
L 126.202747 82.936581 
L 126.892582 82.936581 
L 126.892582 82.800787 
L 127.352473 82.800787 
L 127.352473 82.664993 
L 127.812363 82.664993 
L 127.812363 82.529199 
L 128.042308 82.529199 
L 128.042308 82.257611 
L 128.272253 82.257611 
L 128.272253 81.986023 
L 129.421978 81.986023 
L 129.421978 81.85023 
L 129.881868 81.85023 
L 129.881868 81.714436 
L 130.111813 81.714436 
L 130.111813 81.307054 
L 131.491484 81.307054 
L 131.491484 81.17126 
L 131.721429 81.17126 
L 131.721429 80.899672 
L 131.951374 80.899672 
L 131.951374 80.763878 
L 132.181319 80.763878 
L 132.181319 80.49229 
L 133.331044 80.49229 
L 133.331044 80.356496 
L 134.020879 80.356496 
L 134.020879 79.949115 
L 134.480769 79.949115 
L 134.480769 79.813321 
L 134.710714 79.813321 
L 134.710714 79.677527 
L 135.630495 79.677527 
L 135.630495 79.541733 
L 136.78022 79.541733 
L 136.78022 79.405939 
L 137.010165 79.405939 
L 137.010165 79.134351 
L 137.7 79.134351 
L 137.7 78.998557 
L 138.15989 78.998557 
L 138.15989 78.72697 
L 138.849725 78.72697 
L 138.849725 78.591176 
L 139.309615 78.591176 
L 139.309615 78.455382 
L 139.769505 78.455382 
L 139.769505 78.319588 
L 140.229396 78.319588 
L 140.229396 78.183794 
L 140.459341 78.183794 
L 140.459341 78.048 
L 141.149176 78.048 
L 141.149176 77.640618 
L 141.609066 77.640618 
L 141.609066 77.504824 
L 141.839011 77.504824 
L 141.839011 77.36903 
L 142.988736 77.36903 
L 142.988736 77.233237 
L 143.908516 77.233237 
L 143.908516 76.961649 
L 144.138462 76.961649 
L 144.138462 76.825855 
L 144.598352 76.825855 
L 144.598352 76.554267 
L 145.288187 76.554267 
L 145.288187 76.011091 
L 145.518132 76.011091 
L 145.518132 75.875297 
L 145.748077 75.875297 
L 145.748077 75.739504 
L 146.207967 75.739504 
L 146.207967 75.332122 
L 148.507418 75.332122 
L 148.507418 75.196328 
L 148.967308 75.196328 
L 148.967308 74.92474 
L 150.346978 74.92474 
L 150.346978 74.517358 
L 150.576923 74.517358 
L 150.576923 74.24577 
L 150.806868 74.24577 
L 150.806868 74.109977 
L 151.726648 74.109977 
L 151.726648 73.974183 
L 153.106319 73.974183 
L 153.106319 73.702595 
L 154.256044 73.702595 
L 154.256044 73.566801 
L 154.715934 73.566801 
L 154.715934 73.023625 
L 154.945879 73.023625 
L 154.945879 72.887831 
L 156.325549 72.887831 
L 156.325549 72.752037 
L 156.78544 72.752037 
L 156.78544 72.616244 
L 157.24533 72.616244 
L 157.24533 72.48045 
L 157.475275 72.48045 
L 157.475275 72.208862 
L 158.395055 72.208862 
L 158.395055 72.073068 
L 161.384341 72.073068 
L 161.384341 71.937274 
L 161.614286 71.937274 
L 161.614286 71.80148 
L 162.074176 71.80148 
L 162.074176 71.665686 
L 162.304121 71.665686 
L 162.304121 71.394098 
L 162.993956 71.394098 
L 162.993956 71.258304 
L 163.223901 71.258304 
L 163.223901 70.986717 
L 164.143681 70.986717 
L 164.143681 70.715129 
L 164.833516 70.715129 
L 164.833516 70.579335 
L 167.132967 70.579335 
L 167.132967 70.443541 
L 168.052747 70.443541 
L 168.052747 70.307747 
L 168.282692 70.307747 
L 168.282692 70.171953 
L 169.432418 70.171953 
L 169.432418 69.764571 
L 169.662363 69.764571 
L 169.662363 69.628778 
L 170.582143 69.628778 
L 170.582143 69.221396 
L 170.812088 69.221396 
L 170.812088 69.085602 
L 173.571429 69.085602 
L 173.571429 68.949808 
L 174.031319 68.949808 
L 174.031319 68.814014 
L 174.491209 68.814014 
L 174.491209 68.67822 
L 174.721154 68.67822 
L 174.721154 68.542426 
L 174.951099 68.542426 
L 174.951099 68.406632 
L 175.640934 68.406632 
L 175.640934 68.270838 
L 175.870879 68.270838 
L 175.870879 68.135044 
L 176.560714 68.135044 
L 176.560714 67.999251 
L 177.020604 67.999251 
L 177.020604 67.591869 
L 177.71044 67.591869 
L 177.71044 67.456075 
L 178.860165 67.456075 
L 178.860165 67.320281 
L 180.92967 67.320281 
L 180.92967 67.184487 
L 182.539286 67.184487 
L 182.539286 66.641311 
L 183.229121 66.641311 
L 183.229121 66.505518 
L 183.459066 66.505518 
L 183.459066 66.369724 
L 184.378846 66.369724 
L 184.378846 66.23393 
L 185.758516 66.23393 
L 185.758516 65.962342 
L 186.678297 65.962342 
L 186.678297 65.826548 
L 187.368132 65.826548 
L 187.368132 65.690754 
L 187.828022 65.690754 
L 187.828022 65.55496 
L 188.517857 65.55496 
L 188.517857 65.419166 
L 188.977747 65.419166 
L 188.977747 65.147578 
L 189.437637 65.147578 
L 189.437637 64.740197 
L 190.357418 64.740197 
L 190.357418 64.468609 
L 191.047253 64.468609 
L 191.047253 64.332815 
L 191.737088 64.332815 
L 191.737088 63.925433 
L 192.196978 63.925433 
L 192.196978 63.789639 
L 192.426923 63.789639 
L 192.426923 63.653845 
L 192.886813 63.653845 
L 192.886813 63.246464 
L 196.565934 63.246464 
L 196.565934 62.703288 
L 197.025824 62.703288 
L 197.025824 62.567494 
L 197.945604 62.567494 
L 197.945604 62.4317 
L 198.175549 62.4317 
L 198.175549 62.295906 
L 198.405495 62.295906 
L 198.405495 62.160112 
L 198.63544 62.160112 
L 198.63544 61.888525 
L 199.325275 61.888525 
L 199.325275 61.752731 
L 200.01511 61.752731 
L 200.01511 61.616937 
L 200.704945 61.616937 
L 200.704945 61.345349 
L 201.164835 61.345349 
L 201.164835 61.073761 
L 201.39478 61.073761 
L 201.39478 60.937967 
L 203.234341 60.937967 
L 203.234341 60.530585 
L 205.073901 60.530585 
L 205.073901 60.258998 
L 205.533791 60.258998 
L 205.533791 60.123204 
L 206.683516 60.123204 
L 206.683516 59.851616 
L 208.063187 59.851616 
L 208.063187 59.715822 
L 209.902747 59.715822 
L 209.902747 59.580028 
L 210.592582 59.580028 
L 210.592582 59.444234 
L 211.052473 59.444234 
L 211.052473 59.30844 
L 211.742308 59.30844 
L 211.742308 59.172646 
L 214.041758 59.172646 
L 214.041758 59.036852 
L 214.271703 59.036852 
L 214.271703 58.901059 
L 215.421429 58.901059 
L 215.421429 58.765265 
L 215.651374 58.765265 
L 215.651374 58.629471 
L 216.111264 58.629471 
L 216.111264 58.493677 
L 216.571154 58.493677 
L 216.571154 58.222089 
L 216.801099 58.222089 
L 216.801099 58.086295 
L 217.490934 58.086295 
L 217.490934 57.950501 
L 221.629945 57.950501 
L 221.629945 57.814707 
L 222.31978 57.814707 
L 222.31978 57.678913 
L 224.159341 57.678913 
L 224.159341 57.543119 
L 225.998901 57.543119 
L 225.998901 57.407326 
L 226.458791 57.407326 
L 226.458791 57.135738 
L 227.608516 57.135738 
L 227.608516 56.999944 
L 227.838462 56.999944 
L 227.838462 56.86415 
L 228.298352 56.86415 
L 228.298352 56.728356 
L 228.988187 56.728356 
L 228.988187 56.456768 
L 229.218132 56.456768 
L 229.218132 56.320974 
L 230.137912 56.320974 
L 230.137912 56.049386 
L 231.057692 56.049386 
L 231.057692 55.913593 
L 232.897253 55.913593 
L 232.897253 55.777799 
L 233.587088 55.777799 
L 233.587088 55.642005 
L 233.817033 55.642005 
L 233.817033 55.506211 
L 236.116484 55.506211 
L 236.116484 55.370417 
L 236.806319 55.370417 
L 236.806319 55.098829 
L 237.266209 55.098829 
L 237.266209 54.963035 
L 240.025549 54.963035 
L 240.025549 54.555653 
L 243.014835 54.555653 
L 243.014835 54.419859 
L 243.70467 54.419859 
L 243.934615 54.284066 
L 248.073626 54.284066 
L 248.073626 54.148272 
L 248.763462 54.148272 
L 248.763462 54.012478 
L 249.223352 54.012478 
L 249.223352 53.876684 
L 249.683242 53.876684 
L 249.683242 53.605096 
L 253.592308 53.605096 
L 253.592308 53.333508 
L 254.742033 53.333508 
L 254.742033 53.197714 
L 257.501374 53.197714 
L 257.501374 53.06192 
L 259.110989 53.06192 
L 259.110989 52.926126 
L 259.800824 52.926126 
L 259.800824 52.790333 
L 260.490659 52.790333 
L 260.490659 52.654539 
L 261.180495 52.654539 
L 261.180495 52.518745 
L 261.41044 52.518745 
L 261.41044 52.382951 
L 262.79011 52.382951 
L 262.79011 52.247157 
L 263.70989 52.247157 
L 263.70989 52.111363 
L 265.779396 52.111363 
L 265.779396 51.975569 
L 267.618956 51.975569 
L 267.618956 51.839775 
L 268.538736 51.839775 
L 268.538736 51.703981 
L 269.688462 51.703981 
L 269.688462 51.568187 
L 269.918407 51.568187 
L 269.918407 51.432393 
L 270.378297 51.432393 
L 270.378297 51.2966 
L 271.528022 51.2966 
L 271.528022 51.160806 
L 272.447802 51.160806 
L 272.447802 51.025012 
L 274.747253 51.025012 
L 274.747253 50.889218 
L 277.736538 50.889218 
L 277.736538 50.753424 
L 277.966484 50.753424 
L 277.966484 50.481836 
L 278.426374 50.481836 
L 278.426374 50.346042 
L 278.886264 50.346042 
L 278.886264 50.210248 
L 281.875549 50.210248 
L 281.875549 50.074454 
L 285.784615 50.074454 
L 285.784615 49.93866 
L 286.244505 49.93866 
L 286.244505 49.802867 
L 290.613462 49.802867 
L 290.613462 49.667073 
L 295.212363 49.667073 
L 295.212363 49.531279 
L 295.902198 49.531279 
L 295.902198 49.259691 
L 298.661538 49.259691 
L 298.661538 49.123897 
L 303.26044 49.123897 
L 303.26044 48.852309 
L 304.870055 48.852309 
L 304.870055 48.716515 
L 318.666758 48.716515 
L 318.666758 48.444927 
L 318.896703 48.444927 
L 318.896703 48.309133 
L 325.795055 48.309133 
L 325.795055 48.17334 
L 329.244231 48.17334 
L 329.474176 48.037546 
L 330.623901 48.037546 
L 330.623901 47.765958 
L 338.442033 47.765958 
L 338.442033 47.630164 
L 338.901923 47.630164 
L 338.901923 47.49437 
L 343.960714 47.49437 
L 343.960714 47.358576 
L 344.650549 47.358576 
L 344.650549 47.086988 
L 346.03022 47.086988 
L 346.03022 46.951194 
L 347.86978 46.951194 
L 347.86978 46.8154 
L 352.928571 46.8154 
L 352.928571 46.679607 
L 353.158516 46.679607 
L 353.158516 46.543813 
L 354.998077 46.543813 
L 354.998077 46.408019 
L 355.228022 46.408019 
L 355.228022 46.272225 
L 357.527473 46.272225 
L 357.527473 46.136431 
L 357.757418 46.136431 
L 357.757418 46.000637 
L 361.436538 46.000637 
L 361.436538 45.864843 
L 363.965934 45.864843 
L 363.965934 45.729049 
L 369.71456 45.729049 
L 369.71456 45.593255 
L 371.324176 45.593255 
L 371.324176 45.457461 
L 371.784066 45.457461 
L 371.784066 45.321667 
L 382.591484 45.321667 
L 382.821429 45.185874 
L 384.660989 45.185874 
L 384.660989 45.05008 
L 387.190385 45.05008 
L 387.190385 44.914286 
L 388.8 44.914286 
L 388.8 44.914286 
" style="fill:none;stroke:#ff8c00;stroke-linecap:square;stroke-width:2;"/>
   </g>
   <g id="line2d_14">
    <path clip-path="url(#pebd8d3082b)" d="M 54 252 
L 388.8 44.914286 
" style="fill:none;stroke:#000080;stroke-dasharray:7.4,3.2;stroke-dashoffset:0;stroke-width:2;"/>
   </g>
   <g id="patch_3">
    <path d="M 54 252 
L 54 34.56 
" style="fill:none;stroke:#000000;stroke-linecap:square;stroke-linejoin:miter;stroke-width:0.8;"/>
   </g>
   <g id="patch_4">
    <path d="M 388.8 252 
L 388.8 34.56 
" style="fill:none;stroke:#000000;stroke-linecap:square;stroke-linejoin:miter;stroke-width:0.8;"/>
   </g>
   <g id="patch_5">
    <path d="M 54 252 
L 388.8 252 
" style="fill:none;stroke:#000000;stroke-linecap:square;stroke-linejoin:miter;stroke-width:0.8;"/>
   </g>
   <g id="patch_6">
    <path d="M 54 34.56 
L 388.8 34.56 
" style="fill:none;stroke:#000000;stroke-linecap:square;stroke-linejoin:miter;stroke-width:0.8;"/>
   </g>
   <g id="text_15">
    <!-- Receiver operating characteristic  -->
    <defs>
     <path d="M 48.78125 52.59375 
L 48.78125 44.1875 
Q 44.96875 46.296875 41.140625 47.34375 
Q 37.3125 48.390625 33.40625 48.390625 
Q 24.65625 48.390625 19.8125 42.84375 
Q 14.984375 37.3125 14.984375 27.296875 
Q 14.984375 17.28125 19.8125 11.734375 
Q 24.65625 6.203125 33.40625 6.203125 
Q 37.3125 6.203125 41.140625 7.25 
Q 44.96875 8.296875 48.78125 10.40625 
L 48.78125 2.09375 
Q 45.015625 0.34375 40.984375 -0.53125 
Q 36.96875 -1.421875 32.421875 -1.421875 
Q 20.0625 -1.421875 12.78125 6.34375 
Q 5.515625 14.109375 5.515625 27.296875 
Q 5.515625 40.671875 12.859375 48.328125 
Q 20.21875 56 33.015625 56 
Q 37.15625 56 41.109375 55.140625 
Q 45.0625 54.296875 48.78125 52.59375 
z
" id="DejaVuSans-63"/>
     <path d="M 18.109375 8.203125 
L 18.109375 -20.796875 
L 9.078125 -20.796875 
L 9.078125 54.6875 
L 18.109375 54.6875 
L 18.109375 46.390625 
Q 20.953125 51.265625 25.265625 53.625 
Q 29.59375 56 35.59375 56 
Q 45.5625 56 51.78125 48.09375 
Q 58.015625 40.1875 58.015625 27.296875 
Q 58.015625 14.40625 51.78125 6.484375 
Q 45.5625 -1.421875 35.59375 -1.421875 
Q 29.59375 -1.421875 25.265625 0.953125 
Q 20.953125 3.328125 18.109375 8.203125 
z
M 48.6875 27.296875 
Q 48.6875 37.203125 44.609375 42.84375 
Q 40.53125 48.484375 33.40625 48.484375 
Q 26.265625 48.484375 22.1875 42.84375 
Q 18.109375 37.203125 18.109375 27.296875 
Q 18.109375 17.390625 22.1875 11.75 
Q 26.265625 6.109375 33.40625 6.109375 
Q 40.53125 6.109375 44.609375 11.75 
Q 48.6875 17.390625 48.6875 27.296875 
z
" id="DejaVuSans-70"/>
     <path d="M 54.890625 33.015625 
L 54.890625 0 
L 45.90625 0 
L 45.90625 32.71875 
Q 45.90625 40.484375 42.875 44.328125 
Q 39.84375 48.1875 33.796875 48.1875 
Q 26.515625 48.1875 22.3125 43.546875 
Q 18.109375 38.921875 18.109375 30.90625 
L 18.109375 0 
L 9.078125 0 
L 9.078125 54.6875 
L 18.109375 54.6875 
L 18.109375 46.1875 
Q 21.34375 51.125 25.703125 53.5625 
Q 30.078125 56 35.796875 56 
Q 45.21875 56 50.046875 50.171875 
Q 54.890625 44.34375 54.890625 33.015625 
z
" id="DejaVuSans-6e"/>
     <path d="M 45.40625 27.984375 
Q 45.40625 37.75 41.375 43.109375 
Q 37.359375 48.484375 30.078125 48.484375 
Q 22.859375 48.484375 18.828125 43.109375 
Q 14.796875 37.75 14.796875 27.984375 
Q 14.796875 18.265625 18.828125 12.890625 
Q 22.859375 7.515625 30.078125 7.515625 
Q 37.359375 7.515625 41.375 12.890625 
Q 45.40625 18.265625 45.40625 27.984375 
z
M 54.390625 6.78125 
Q 54.390625 -7.171875 48.1875 -13.984375 
Q 42 -20.796875 29.203125 -20.796875 
Q 24.46875 -20.796875 20.265625 -20.09375 
Q 16.0625 -19.390625 12.109375 -17.921875 
L 12.109375 -9.1875 
Q 16.0625 -11.328125 19.921875 -12.34375 
Q 23.78125 -13.375 27.78125 -13.375 
Q 36.625 -13.375 41.015625 -8.765625 
Q 45.40625 -4.15625 45.40625 5.171875 
L 45.40625 9.625 
Q 42.625 4.78125 38.28125 2.390625 
Q 33.9375 0 27.875 0 
Q 17.828125 0 11.671875 7.65625 
Q 5.515625 15.328125 5.515625 27.984375 
Q 5.515625 40.671875 11.671875 48.328125 
Q 17.828125 56 27.875 56 
Q 33.9375 56 38.28125 53.609375 
Q 42.625 51.21875 45.40625 46.390625 
L 45.40625 54.6875 
L 54.390625 54.6875 
z
" id="DejaVuSans-67"/>
     <path d="M 54.890625 33.015625 
L 54.890625 0 
L 45.90625 0 
L 45.90625 32.71875 
Q 45.90625 40.484375 42.875 44.328125 
Q 39.84375 48.1875 33.796875 48.1875 
Q 26.515625 48.1875 22.3125 43.546875 
Q 18.109375 38.921875 18.109375 30.90625 
L 18.109375 0 
L 9.078125 0 
L 9.078125 75.984375 
L 18.109375 75.984375 
L 18.109375 46.1875 
Q 21.34375 51.125 25.703125 53.5625 
Q 30.078125 56 35.796875 56 
Q 45.21875 56 50.046875 50.171875 
Q 54.890625 44.34375 54.890625 33.015625 
z
" id="DejaVuSans-68"/>
    </defs>
    <g transform="translate(119.66625 28.56)scale(0.12 -0.12)">
     <use xlink:href="#DejaVuSans-52"/>
     <use x="69.419922" xlink:href="#DejaVuSans-65"/>
     <use x="130.943359" xlink:href="#DejaVuSans-63"/>
     <use x="185.923828" xlink:href="#DejaVuSans-65"/>
     <use x="247.447266" xlink:href="#DejaVuSans-69"/>
     <use x="275.230469" xlink:href="#DejaVuSans-76"/>
     <use x="334.410156" xlink:href="#DejaVuSans-65"/>
     <use x="395.933594" xlink:href="#DejaVuSans-72"/>
     <use x="437.046875" xlink:href="#DejaVuSans-20"/>
     <use x="468.833984" xlink:href="#DejaVuSans-6f"/>
     <use x="530.015625" xlink:href="#DejaVuSans-70"/>
     <use x="593.492188" xlink:href="#DejaVuSans-65"/>
     <use x="655.015625" xlink:href="#DejaVuSans-72"/>
     <use x="696.128906" xlink:href="#DejaVuSans-61"/>
     <use x="757.408203" xlink:href="#DejaVuSans-74"/>
     <use x="796.617188" xlink:href="#DejaVuSans-69"/>
     <use x="824.400391" xlink:href="#DejaVuSans-6e"/>
     <use x="887.779297" xlink:href="#DejaVuSans-67"/>
     <use x="951.255859" xlink:href="#DejaVuSans-20"/>
     <use x="983.042969" xlink:href="#DejaVuSans-63"/>
     <use x="1038.023438" xlink:href="#DejaVuSans-68"/>
     <use x="1101.402344" xlink:href="#DejaVuSans-61"/>
     <use x="1162.681641" xlink:href="#DejaVuSans-72"/>
     <use x="1203.794922" xlink:href="#DejaVuSans-61"/>
     <use x="1265.074219" xlink:href="#DejaVuSans-63"/>
     <use x="1320.054688" xlink:href="#DejaVuSans-74"/>
     <use x="1359.263672" xlink:href="#DejaVuSans-65"/>
     <use x="1420.787109" xlink:href="#DejaVuSans-72"/>
     <use x="1461.900391" xlink:href="#DejaVuSans-69"/>
     <use x="1489.683594" xlink:href="#DejaVuSans-73"/>
     <use x="1541.783203" xlink:href="#DejaVuSans-74"/>
     <use x="1580.992188" xlink:href="#DejaVuSans-69"/>
     <use x="1608.775391" xlink:href="#DejaVuSans-63"/>
     <use x="1663.755859" xlink:href="#DejaVuSans-20"/>
    </g>
   </g>
   <g id="legend_1">
    <g id="patch_7">
     <path d="M 219.9375 247 
L 381.8 247 
Q 383.8 247 383.8 245 
L 383.8 231.321875 
Q 383.8 229.321875 381.8 229.321875 
L 219.9375 229.321875 
Q 217.9375 229.321875 217.9375 231.321875 
L 217.9375 245 
Q 217.9375 247 219.9375 247 
z
" style="fill:#ffffff;opacity:0.8;stroke:#cccccc;stroke-linejoin:miter;"/>
    </g>
    <g id="line2d_15">
     <path d="M 221.9375 237.420312 
L 241.9375 237.420312 
" style="fill:none;stroke:#ff8c00;stroke-linecap:square;stroke-width:2;"/>
    </g>
    <g id="line2d_16"/>
    <g id="text_16">
     <!-- ROC curve (area = 0.879) -->
     <defs>
      <path d="M 39.40625 66.21875 
Q 28.65625 66.21875 22.328125 58.203125 
Q 16.015625 50.203125 16.015625 36.375 
Q 16.015625 22.609375 22.328125 14.59375 
Q 28.65625 6.59375 39.40625 6.59375 
Q 50.140625 6.59375 56.421875 14.59375 
Q 62.703125 22.609375 62.703125 36.375 
Q 62.703125 50.203125 56.421875 58.203125 
Q 50.140625 66.21875 39.40625 66.21875 
z
M 39.40625 74.21875 
Q 54.734375 74.21875 63.90625 63.9375 
Q 73.09375 53.65625 73.09375 36.375 
Q 73.09375 19.140625 63.90625 8.859375 
Q 54.734375 -1.421875 39.40625 -1.421875 
Q 24.03125 -1.421875 14.8125 8.828125 
Q 5.609375 19.09375 5.609375 36.375 
Q 5.609375 53.65625 14.8125 63.9375 
Q 24.03125 74.21875 39.40625 74.21875 
z
" id="DejaVuSans-4f"/>
      <path d="M 64.40625 67.28125 
L 64.40625 56.890625 
Q 59.421875 61.53125 53.78125 63.8125 
Q 48.140625 66.109375 41.796875 66.109375 
Q 29.296875 66.109375 22.65625 58.46875 
Q 16.015625 50.828125 16.015625 36.375 
Q 16.015625 21.96875 22.65625 14.328125 
Q 29.296875 6.6875 41.796875 6.6875 
Q 48.140625 6.6875 53.78125 8.984375 
Q 59.421875 11.28125 64.40625 15.921875 
L 64.40625 5.609375 
Q 59.234375 2.09375 53.4375 0.328125 
Q 47.65625 -1.421875 41.21875 -1.421875 
Q 24.65625 -1.421875 15.125 8.703125 
Q 5.609375 18.84375 5.609375 36.375 
Q 5.609375 53.953125 15.125 64.078125 
Q 24.65625 74.21875 41.21875 74.21875 
Q 47.75 74.21875 53.53125 72.484375 
Q 59.328125 70.75 64.40625 67.28125 
z
" id="DejaVuSans-43"/>
      <path d="M 31 75.875 
Q 24.46875 64.65625 21.28125 53.65625 
Q 18.109375 42.671875 18.109375 31.390625 
Q 18.109375 20.125 21.3125 9.0625 
Q 24.515625 -2 31 -13.1875 
L 23.1875 -13.1875 
Q 15.875 -1.703125 12.234375 9.375 
Q 8.59375 20.453125 8.59375 31.390625 
Q 8.59375 42.28125 12.203125 53.3125 
Q 15.828125 64.359375 23.1875 75.875 
z
" id="DejaVuSans-28"/>
      <path d="M 10.59375 45.40625 
L 73.1875 45.40625 
L 73.1875 37.203125 
L 10.59375 37.203125 
z
M 10.59375 25.484375 
L 73.1875 25.484375 
L 73.1875 17.1875 
L 10.59375 17.1875 
z
" id="DejaVuSans-3d"/>
      <path d="M 8.203125 72.90625 
L 55.078125 72.90625 
L 55.078125 68.703125 
L 28.609375 0 
L 18.3125 0 
L 43.21875 64.59375 
L 8.203125 64.59375 
z
" id="DejaVuSans-37"/>
      <path d="M 10.984375 1.515625 
L 10.984375 10.5 
Q 14.703125 8.734375 18.5 7.8125 
Q 22.3125 6.890625 25.984375 6.890625 
Q 35.75 6.890625 40.890625 13.453125 
Q 46.046875 20.015625 46.78125 33.40625 
Q 43.953125 29.203125 39.59375 26.953125 
Q 35.25 24.703125 29.984375 24.703125 
Q 19.046875 24.703125 12.671875 31.3125 
Q 6.296875 37.9375 6.296875 49.421875 
Q 6.296875 60.640625 12.9375 67.421875 
Q 19.578125 74.21875 30.609375 74.21875 
Q 43.265625 74.21875 49.921875 64.515625 
Q 56.59375 54.828125 56.59375 36.375 
Q 56.59375 19.140625 48.40625 8.859375 
Q 40.234375 -1.421875 26.421875 -1.421875 
Q 22.703125 -1.421875 18.890625 -0.6875 
Q 15.09375 0.046875 10.984375 1.515625 
z
M 30.609375 32.421875 
Q 37.25 32.421875 41.125 36.953125 
Q 45.015625 41.5 45.015625 49.421875 
Q 45.015625 57.28125 41.125 61.84375 
Q 37.25 66.40625 30.609375 66.40625 
Q 23.96875 66.40625 20.09375 61.84375 
Q 16.21875 57.28125 16.21875 49.421875 
Q 16.21875 41.5 20.09375 36.953125 
Q 23.96875 32.421875 30.609375 32.421875 
z
" id="DejaVuSans-39"/>
      <path d="M 8.015625 75.875 
L 15.828125 75.875 
Q 23.140625 64.359375 26.78125 53.3125 
Q 30.421875 42.28125 30.421875 31.390625 
Q 30.421875 20.453125 26.78125 9.375 
Q 23.140625 -1.703125 15.828125 -13.1875 
L 8.015625 -13.1875 
Q 14.5 -2 17.703125 9.0625 
Q 20.90625 20.125 20.90625 31.390625 
Q 20.90625 42.671875 17.703125 53.65625 
Q 14.5 64.65625 8.015625 75.875 
z
" id="DejaVuSans-29"/>
     </defs>
     <g transform="translate(249.9375 240.920312)scale(0.1 -0.1)">
      <use xlink:href="#DejaVuSans-52"/>
      <use x="69.482422" xlink:href="#DejaVuSans-4f"/>
      <use x="148.193359" xlink:href="#DejaVuSans-43"/>
      <use x="218.017578" xlink:href="#DejaVuSans-20"/>
      <use x="249.804688" xlink:href="#DejaVuSans-63"/>
      <use x="304.785156" xlink:href="#DejaVuSans-75"/>
      <use x="368.164062" xlink:href="#DejaVuSans-72"/>
      <use x="409.277344" xlink:href="#DejaVuSans-76"/>
      <use x="468.457031" xlink:href="#DejaVuSans-65"/>
      <use x="529.980469" xlink:href="#DejaVuSans-20"/>
      <use x="561.767578" xlink:href="#DejaVuSans-28"/>
      <use x="600.78125" xlink:href="#DejaVuSans-61"/>
      <use x="662.060547" xlink:href="#DejaVuSans-72"/>
      <use x="703.142578" xlink:href="#DejaVuSans-65"/>
      <use x="764.666016" xlink:href="#DejaVuSans-61"/>
      <use x="825.945312" xlink:href="#DejaVuSans-20"/>
      <use x="857.732422" xlink:href="#DejaVuSans-3d"/>
      <use x="941.521484" xlink:href="#DejaVuSans-20"/>
      <use x="973.308594" xlink:href="#DejaVuSans-30"/>
      <use x="1036.931641" xlink:href="#DejaVuSans-2e"/>
      <use x="1068.71875" xlink:href="#DejaVuSans-38"/>
      <use x="1132.341797" xlink:href="#DejaVuSans-37"/>
      <use x="1195.964844" xlink:href="#DejaVuSans-39"/>
      <use x="1259.587891" xlink:href="#DejaVuSans-29"/>
     </g>
    </g>
   </g>
  </g>
 </g>
 <defs>
  <clipPath id="pebd8d3082b">
   <rect height="217.44" width="334.8" x="54" y="34.56"/>
  </clipPath>
 </defs>
</svg>
