<?xml version="1.0" encoding="utf-8" standalone="no"?>
<!DOCTYPE svg PUBLIC "-//W3C//DTD SVG 1.1//EN"
  "http://www.w3.org/Graphics/SVG/1.1/DTD/svg11.dtd">
<!-- Created with matplotlib (http://matplotlib.org/) -->
<svg height="288pt" version="1.1" viewBox="0 0 432 288" width="432pt" xmlns="http://www.w3.org/2000/svg" xmlns:xlink="http://www.w3.org/1999/xlink">
 <defs>
  <style type="text/css">
*{stroke-linecap:butt;stroke-linejoin:round;}
  </style>
 </defs>
 <g id="figure_1">
  <g id="patch_1">
   <path d="M 0 288 
L 432 288 
L 432 0 
L 0 0 
z
" style="fill:#ffffff;"/>
  </g>
  <g id="axes_1">
   <g id="patch_2">
    <path d="M 54 252 
L 388.8 252 
L 388.8 34.56 
L 54 34.56 
z
" style="fill:#ffffff;"/>
   </g>
   <g id="matplotlib.axis_1">
    <g id="xtick_1">
     <g id="line2d_1">
      <defs>
       <path d="M 0 0 
L 0 3.5 
" id="m9881cfe4e2" style="stroke:#000000;stroke-width:0.8;"/>
      </defs>
      <g>
       <use style="stroke:#000000;stroke-width:0.8;" x="54" xlink:href="#m9881cfe4e2" y="252"/>
      </g>
     </g>
     <g id="text_1">
      <!-- 0.0 -->
      <defs>
       <path d="M 31.78125 66.40625 
Q 24.171875 66.40625 20.328125 58.90625 
Q 16.5 51.421875 16.5 36.375 
Q 16.5 21.390625 20.328125 13.890625 
Q 24.171875 6.390625 31.78125 6.390625 
Q 39.453125 6.390625 43.28125 13.890625 
Q 47.125 21.390625 47.125 36.375 
Q 47.125 51.421875 43.28125 58.90625 
Q 39.453125 66.40625 31.78125 66.40625 
z
M 31.78125 74.21875 
Q 44.046875 74.21875 50.515625 64.515625 
Q 56.984375 54.828125 56.984375 36.375 
Q 56.984375 17.96875 50.515625 8.265625 
Q 44.046875 -1.421875 31.78125 -1.421875 
Q 19.53125 -1.421875 13.0625 8.265625 
Q 6.59375 17.96875 6.59375 36.375 
Q 6.59375 54.828125 13.0625 64.515625 
Q 19.53125 74.21875 31.78125 74.21875 
z
" id="DejaVuSans-30"/>
       <path d="M 10.6875 12.40625 
L 21 12.40625 
L 21 0 
L 10.6875 0 
z
" id="DejaVuSans-2e"/>
      </defs>
      <g transform="translate(46.048437 266.598437)scale(0.1 -0.1)">
       <use xlink:href="#DejaVuSans-30"/>
       <use x="63.623047" xlink:href="#DejaVuSans-2e"/>
       <use x="95.410156" xlink:href="#DejaVuSans-30"/>
      </g>
     </g>
    </g>
    <g id="xtick_2">
     <g id="line2d_2">
      <g>
       <use style="stroke:#000000;stroke-width:0.8;" x="120.96" xlink:href="#m9881cfe4e2" y="252"/>
      </g>
     </g>
     <g id="text_2">
      <!-- 0.2 -->
      <defs>
       <path d="M 19.1875 8.296875 
L 53.609375 8.296875 
L 53.609375 0 
L 7.328125 0 
L 7.328125 8.296875 
Q 12.9375 14.109375 22.625 23.890625 
Q 32.328125 33.6875 34.8125 36.53125 
Q 39.546875 41.84375 41.421875 45.53125 
Q 43.3125 49.21875 43.3125 52.78125 
Q 43.3125 58.59375 39.234375 62.25 
Q 35.15625 65.921875 28.609375 65.921875 
Q 23.96875 65.921875 18.8125 64.3125 
Q 13.671875 62.703125 7.8125 59.421875 
L 7.8125 69.390625 
Q 13.765625 71.78125 18.9375 73 
Q 24.125 74.21875 28.421875 74.21875 
Q 39.75 74.21875 46.484375 68.546875 
Q 53.21875 62.890625 53.21875 53.421875 
Q 53.21875 48.921875 51.53125 44.890625 
Q 49.859375 40.875 45.40625 35.40625 
Q 44.1875 33.984375 37.640625 27.21875 
Q 31.109375 20.453125 19.1875 8.296875 
z
" id="DejaVuSans-32"/>
      </defs>
      <g transform="translate(113.008438 266.598437)scale(0.1 -0.1)">
       <use xlink:href="#DejaVuSans-30"/>
       <use x="63.623047" xlink:href="#DejaVuSans-2e"/>
       <use x="95.410156" xlink:href="#DejaVuSans-32"/>
      </g>
     </g>
    </g>
    <g id="xtick_3">
     <g id="line2d_3">
      <g>
       <use style="stroke:#000000;stroke-width:0.8;" x="187.92" xlink:href="#m9881cfe4e2" y="252"/>
      </g>
     </g>
     <g id="text_3">
      <!-- 0.4 -->
      <defs>
       <path d="M 37.796875 64.3125 
L 12.890625 25.390625 
L 37.796875 25.390625 
z
M 35.203125 72.90625 
L 47.609375 72.90625 
L 47.609375 25.390625 
L 58.015625 25.390625 
L 58.015625 17.1875 
L 47.609375 17.1875 
L 47.609375 0 
L 37.796875 0 
L 37.796875 17.1875 
L 4.890625 17.1875 
L 4.890625 26.703125 
z
" id="DejaVuSans-34"/>
      </defs>
      <g transform="translate(179.968438 266.598437)scale(0.1 -0.1)">
       <use xlink:href="#DejaVuSans-30"/>
       <use x="63.623047" xlink:href="#DejaVuSans-2e"/>
       <use x="95.410156" xlink:href="#DejaVuSans-34"/>
      </g>
     </g>
    </g>
    <g id="xtick_4">
     <g id="line2d_4">
      <g>
       <use style="stroke:#000000;stroke-width:0.8;" x="254.88" xlink:href="#m9881cfe4e2" y="252"/>
      </g>
     </g>
     <g id="text_4">
      <!-- 0.6 -->
      <defs>
       <path d="M 33.015625 40.375 
Q 26.375 40.375 22.484375 35.828125 
Q 18.609375 31.296875 18.609375 23.390625 
Q 18.609375 15.53125 22.484375 10.953125 
Q 26.375 6.390625 33.015625 6.390625 
Q 39.65625 6.390625 43.53125 10.953125 
Q 47.40625 15.53125 47.40625 23.390625 
Q 47.40625 31.296875 43.53125 35.828125 
Q 39.65625 40.375 33.015625 40.375 
z
M 52.59375 71.296875 
L 52.59375 62.3125 
Q 48.875 64.0625 45.09375 64.984375 
Q 41.3125 65.921875 37.59375 65.921875 
Q 27.828125 65.921875 22.671875 59.328125 
Q 17.53125 52.734375 16.796875 39.40625 
Q 19.671875 43.65625 24.015625 45.921875 
Q 28.375 48.1875 33.59375 48.1875 
Q 44.578125 48.1875 50.953125 41.515625 
Q 57.328125 34.859375 57.328125 23.390625 
Q 57.328125 12.15625 50.6875 5.359375 
Q 44.046875 -1.421875 33.015625 -1.421875 
Q 20.359375 -1.421875 13.671875 8.265625 
Q 6.984375 17.96875 6.984375 36.375 
Q 6.984375 53.65625 15.1875 63.9375 
Q 23.390625 74.21875 37.203125 74.21875 
Q 40.921875 74.21875 44.703125 73.484375 
Q 48.484375 72.75 52.59375 71.296875 
z
" id="DejaVuSans-36"/>
      </defs>
      <g transform="translate(246.928438 266.598437)scale(0.1 -0.1)">
       <use xlink:href="#DejaVuSans-30"/>
       <use x="63.623047" xlink:href="#DejaVuSans-2e"/>
       <use x="95.410156" xlink:href="#DejaVuSans-36"/>
      </g>
     </g>
    </g>
    <g id="xtick_5">
     <g id="line2d_5">
      <g>
       <use style="stroke:#000000;stroke-width:0.8;" x="321.84" xlink:href="#m9881cfe4e2" y="252"/>
      </g>
     </g>
     <g id="text_5">
      <!-- 0.8 -->
      <defs>
       <path d="M 31.78125 34.625 
Q 24.75 34.625 20.71875 30.859375 
Q 16.703125 27.09375 16.703125 20.515625 
Q 16.703125 13.921875 20.71875 10.15625 
Q 24.75 6.390625 31.78125 6.390625 
Q 38.8125 6.390625 42.859375 10.171875 
Q 46.921875 13.96875 46.921875 20.515625 
Q 46.921875 27.09375 42.890625 30.859375 
Q 38.875 34.625 31.78125 34.625 
z
M 21.921875 38.8125 
Q 15.578125 40.375 12.03125 44.71875 
Q 8.5 49.078125 8.5 55.328125 
Q 8.5 64.0625 14.71875 69.140625 
Q 20.953125 74.21875 31.78125 74.21875 
Q 42.671875 74.21875 48.875 69.140625 
Q 55.078125 64.0625 55.078125 55.328125 
Q 55.078125 49.078125 51.53125 44.71875 
Q 48 40.375 41.703125 38.8125 
Q 48.828125 37.15625 52.796875 32.3125 
Q 56.78125 27.484375 56.78125 20.515625 
Q 56.78125 9.90625 50.3125 4.234375 
Q 43.84375 -1.421875 31.78125 -1.421875 
Q 19.734375 -1.421875 13.25 4.234375 
Q 6.78125 9.90625 6.78125 20.515625 
Q 6.78125 27.484375 10.78125 32.3125 
Q 14.796875 37.15625 21.921875 38.8125 
z
M 18.3125 54.390625 
Q 18.3125 48.734375 21.84375 45.5625 
Q 25.390625 42.390625 31.78125 42.390625 
Q 38.140625 42.390625 41.71875 45.5625 
Q 45.3125 48.734375 45.3125 54.390625 
Q 45.3125 60.0625 41.71875 63.234375 
Q 38.140625 66.40625 31.78125 66.40625 
Q 25.390625 66.40625 21.84375 63.234375 
Q 18.3125 60.0625 18.3125 54.390625 
z
" id="DejaVuSans-38"/>
      </defs>
      <g transform="translate(313.888438 266.598437)scale(0.1 -0.1)">
       <use xlink:href="#DejaVuSans-30"/>
       <use x="63.623047" xlink:href="#DejaVuSans-2e"/>
       <use x="95.410156" xlink:href="#DejaVuSans-38"/>
      </g>
     </g>
    </g>
    <g id="xtick_6">
     <g id="line2d_6">
      <g>
       <use style="stroke:#000000;stroke-width:0.8;" x="388.8" xlink:href="#m9881cfe4e2" y="252"/>
      </g>
     </g>
     <g id="text_6">
      <!-- 1.0 -->
      <defs>
       <path d="M 12.40625 8.296875 
L 28.515625 8.296875 
L 28.515625 63.921875 
L 10.984375 60.40625 
L 10.984375 69.390625 
L 28.421875 72.90625 
L 38.28125 72.90625 
L 38.28125 8.296875 
L 54.390625 8.296875 
L 54.390625 0 
L 12.40625 0 
z
" id="DejaVuSans-31"/>
      </defs>
      <g transform="translate(380.848437 266.598437)scale(0.1 -0.1)">
       <use xlink:href="#DejaVuSans-31"/>
       <use x="63.623047" xlink:href="#DejaVuSans-2e"/>
       <use x="95.410156" xlink:href="#DejaVuSans-30"/>
      </g>
     </g>
    </g>
    <g id="text_7">
     <!-- False Positive Rate -->
     <defs>
      <path d="M 9.8125 72.90625 
L 51.703125 72.90625 
L 51.703125 64.59375 
L 19.671875 64.59375 
L 19.671875 43.109375 
L 48.578125 43.109375 
L 48.578125 34.8125 
L 19.671875 34.8125 
L 19.671875 0 
L 9.8125 0 
z
" id="DejaVuSans-46"/>
      <path d="M 34.28125 27.484375 
Q 23.390625 27.484375 19.1875 25 
Q 14.984375 22.515625 14.984375 16.5 
Q 14.984375 11.71875 18.140625 8.90625 
Q 21.296875 6.109375 26.703125 6.109375 
Q 34.1875 6.109375 38.703125 11.40625 
Q 43.21875 16.703125 43.21875 25.484375 
L 43.21875 27.484375 
z
M 52.203125 31.203125 
L 52.203125 0 
L 43.21875 0 
L 43.21875 8.296875 
Q 40.140625 3.328125 35.546875 0.953125 
Q 30.953125 -1.421875 24.3125 -1.421875 
Q 15.921875 -1.421875 10.953125 3.296875 
Q 6 8.015625 6 15.921875 
Q 6 25.140625 12.171875 29.828125 
Q 18.359375 34.515625 30.609375 34.515625 
L 43.21875 34.515625 
L 43.21875 35.40625 
Q 43.21875 41.609375 39.140625 45 
Q 35.0625 48.390625 27.6875 48.390625 
Q 23 48.390625 18.546875 47.265625 
Q 14.109375 46.140625 10.015625 43.890625 
L 10.015625 52.203125 
Q 14.9375 54.109375 19.578125 55.046875 
Q 24.21875 56 28.609375 56 
Q 40.484375 56 46.34375 49.84375 
Q 52.203125 43.703125 52.203125 31.203125 
z
" id="DejaVuSans-61"/>
      <path d="M 9.421875 75.984375 
L 18.40625 75.984375 
L 18.40625 0 
L 9.421875 0 
z
" id="DejaVuSans-6c"/>
      <path d="M 44.28125 53.078125 
L 44.28125 44.578125 
Q 40.484375 46.53125 36.375 47.5 
Q 32.28125 48.484375 27.875 48.484375 
Q 21.1875 48.484375 17.84375 46.4375 
Q 14.5 44.390625 14.5 40.28125 
Q 14.5 37.15625 16.890625 35.375 
Q 19.28125 33.59375 26.515625 31.984375 
L 29.59375 31.296875 
Q 39.15625 29.25 43.1875 25.515625 
Q 47.21875 21.78125 47.21875 15.09375 
Q 47.21875 7.46875 41.1875 3.015625 
Q 35.15625 -1.421875 24.609375 -1.421875 
Q 20.21875 -1.421875 15.453125 -0.5625 
Q 10.6875 0.296875 5.421875 2 
L 5.421875 11.28125 
Q 10.40625 8.6875 15.234375 7.390625 
Q 20.0625 6.109375 24.8125 6.109375 
Q 31.15625 6.109375 34.5625 8.28125 
Q 37.984375 10.453125 37.984375 14.40625 
Q 37.984375 18.0625 35.515625 20.015625 
Q 33.0625 21.96875 24.703125 23.78125 
L 21.578125 24.515625 
Q 13.234375 26.265625 9.515625 29.90625 
Q 5.8125 33.546875 5.8125 39.890625 
Q 5.8125 47.609375 11.28125 51.796875 
Q 16.75 56 26.8125 56 
Q 31.78125 56 36.171875 55.265625 
Q 40.578125 54.546875 44.28125 53.078125 
z
" id="DejaVuSans-73"/>
      <path d="M 56.203125 29.59375 
L 56.203125 25.203125 
L 14.890625 25.203125 
Q 15.484375 15.921875 20.484375 11.0625 
Q 25.484375 6.203125 34.421875 6.203125 
Q 39.59375 6.203125 44.453125 7.46875 
Q 49.3125 8.734375 54.109375 11.28125 
L 54.109375 2.78125 
Q 49.265625 0.734375 44.1875 -0.34375 
Q 39.109375 -1.421875 33.890625 -1.421875 
Q 20.796875 -1.421875 13.15625 6.1875 
Q 5.515625 13.8125 5.515625 26.8125 
Q 5.515625 40.234375 12.765625 48.109375 
Q 20.015625 56 32.328125 56 
Q 43.359375 56 49.78125 48.890625 
Q 56.203125 41.796875 56.203125 29.59375 
z
M 47.21875 32.234375 
Q 47.125 39.59375 43.09375 43.984375 
Q 39.0625 48.390625 32.421875 48.390625 
Q 24.90625 48.390625 20.390625 44.140625 
Q 15.875 39.890625 15.1875 32.171875 
z
" id="DejaVuSans-65"/>
      <path id="DejaVuSans-20"/>
      <path d="M 19.671875 64.796875 
L 19.671875 37.40625 
L 32.078125 37.40625 
Q 38.96875 37.40625 42.71875 40.96875 
Q 46.484375 44.53125 46.484375 51.125 
Q 46.484375 57.671875 42.71875 61.234375 
Q 38.96875 64.796875 32.078125 64.796875 
z
M 9.8125 72.90625 
L 32.078125 72.90625 
Q 44.34375 72.90625 50.609375 67.359375 
Q 56.890625 61.8125 56.890625 51.125 
Q 56.890625 40.328125 50.609375 34.8125 
Q 44.34375 29.296875 32.078125 29.296875 
L 19.671875 29.296875 
L 19.671875 0 
L 9.8125 0 
z
" id="DejaVuSans-50"/>
      <path d="M 30.609375 48.390625 
Q 23.390625 48.390625 19.1875 42.75 
Q 14.984375 37.109375 14.984375 27.296875 
Q 14.984375 17.484375 19.15625 11.84375 
Q 23.34375 6.203125 30.609375 6.203125 
Q 37.796875 6.203125 41.984375 11.859375 
Q 46.1875 17.53125 46.1875 27.296875 
Q 46.1875 37.015625 41.984375 42.703125 
Q 37.796875 48.390625 30.609375 48.390625 
z
M 30.609375 56 
Q 42.328125 56 49.015625 48.375 
Q 55.71875 40.765625 55.71875 27.296875 
Q 55.71875 13.875 49.015625 6.21875 
Q 42.328125 -1.421875 30.609375 -1.421875 
Q 18.84375 -1.421875 12.171875 6.21875 
Q 5.515625 13.875 5.515625 27.296875 
Q 5.515625 40.765625 12.171875 48.375 
Q 18.84375 56 30.609375 56 
z
" id="DejaVuSans-6f"/>
      <path d="M 9.421875 54.6875 
L 18.40625 54.6875 
L 18.40625 0 
L 9.421875 0 
z
M 9.421875 75.984375 
L 18.40625 75.984375 
L 18.40625 64.59375 
L 9.421875 64.59375 
z
" id="DejaVuSans-69"/>
      <path d="M 18.3125 70.21875 
L 18.3125 54.6875 
L 36.8125 54.6875 
L 36.8125 47.703125 
L 18.3125 47.703125 
L 18.3125 18.015625 
Q 18.3125 11.328125 20.140625 9.421875 
Q 21.96875 7.515625 27.59375 7.515625 
L 36.8125 7.515625 
L 36.8125 0 
L 27.59375 0 
Q 17.1875 0 13.234375 3.875 
Q 9.28125 7.765625 9.28125 18.015625 
L 9.28125 47.703125 
L 2.6875 47.703125 
L 2.6875 54.6875 
L 9.28125 54.6875 
L 9.28125 70.21875 
z
" id="DejaVuSans-74"/>
      <path d="M 2.984375 54.6875 
L 12.5 54.6875 
L 29.59375 8.796875 
L 46.6875 54.6875 
L 56.203125 54.6875 
L 35.6875 0 
L 23.484375 0 
z
" id="DejaVuSans-76"/>
      <path d="M 44.390625 34.1875 
Q 47.5625 33.109375 50.5625 29.59375 
Q 53.5625 26.078125 56.59375 19.921875 
L 66.609375 0 
L 56 0 
L 46.6875 18.703125 
Q 43.0625 26.03125 39.671875 28.421875 
Q 36.28125 30.8125 30.421875 30.8125 
L 19.671875 30.8125 
L 19.671875 0 
L 9.8125 0 
L 9.8125 72.90625 
L 32.078125 72.90625 
Q 44.578125 72.90625 50.734375 67.671875 
Q 56.890625 62.453125 56.890625 51.90625 
Q 56.890625 45.015625 53.6875 40.46875 
Q 50.484375 35.9375 44.390625 34.1875 
z
M 19.671875 64.796875 
L 19.671875 38.921875 
L 32.078125 38.921875 
Q 39.203125 38.921875 42.84375 42.21875 
Q 46.484375 45.515625 46.484375 51.90625 
Q 46.484375 58.296875 42.84375 61.546875 
Q 39.203125 64.796875 32.078125 64.796875 
z
" id="DejaVuSans-52"/>
     </defs>
     <g transform="translate(174.194531 280.276563)scale(0.1 -0.1)">
      <use xlink:href="#DejaVuSans-46"/>
      <use x="57.378906" xlink:href="#DejaVuSans-61"/>
      <use x="118.658203" xlink:href="#DejaVuSans-6c"/>
      <use x="146.441406" xlink:href="#DejaVuSans-73"/>
      <use x="198.541016" xlink:href="#DejaVuSans-65"/>
      <use x="260.064453" xlink:href="#DejaVuSans-20"/>
      <use x="291.851562" xlink:href="#DejaVuSans-50"/>
      <use x="352.107422" xlink:href="#DejaVuSans-6f"/>
      <use x="413.289062" xlink:href="#DejaVuSans-73"/>
      <use x="465.388672" xlink:href="#DejaVuSans-69"/>
      <use x="493.171875" xlink:href="#DejaVuSans-74"/>
      <use x="532.380859" xlink:href="#DejaVuSans-69"/>
      <use x="560.164062" xlink:href="#DejaVuSans-76"/>
      <use x="619.34375" xlink:href="#DejaVuSans-65"/>
      <use x="680.867188" xlink:href="#DejaVuSans-20"/>
      <use x="712.654297" xlink:href="#DejaVuSans-52"/>
      <use x="782.105469" xlink:href="#DejaVuSans-61"/>
      <use x="843.384766" xlink:href="#DejaVuSans-74"/>
      <use x="882.59375" xlink:href="#DejaVuSans-65"/>
     </g>
    </g>
   </g>
   <g id="matplotlib.axis_2">
    <g id="ytick_1">
     <g id="line2d_7">
      <defs>
       <path d="M 0 0 
L -3.5 0 
" id="me9a3e959ea" style="stroke:#000000;stroke-width:0.8;"/>
      </defs>
      <g>
       <use style="stroke:#000000;stroke-width:0.8;" x="54" xlink:href="#me9a3e959ea" y="252"/>
      </g>
     </g>
     <g id="text_8">
      <!-- 0.0 -->
      <g transform="translate(31.096875 255.799219)scale(0.1 -0.1)">
       <use xlink:href="#DejaVuSans-30"/>
       <use x="63.623047" xlink:href="#DejaVuSans-2e"/>
       <use x="95.410156" xlink:href="#DejaVuSans-30"/>
      </g>
     </g>
    </g>
    <g id="ytick_2">
     <g id="line2d_8">
      <g>
       <use style="stroke:#000000;stroke-width:0.8;" x="54" xlink:href="#me9a3e959ea" y="210.582857"/>
      </g>
     </g>
     <g id="text_9">
      <!-- 0.2 -->
      <g transform="translate(31.096875 214.382076)scale(0.1 -0.1)">
       <use xlink:href="#DejaVuSans-30"/>
       <use x="63.623047" xlink:href="#DejaVuSans-2e"/>
       <use x="95.410156" xlink:href="#DejaVuSans-32"/>
      </g>
     </g>
    </g>
    <g id="ytick_3">
     <g id="line2d_9">
      <g>
       <use style="stroke:#000000;stroke-width:0.8;" x="54" xlink:href="#me9a3e959ea" y="169.165714"/>
      </g>
     </g>
     <g id="text_10">
      <!-- 0.4 -->
      <g transform="translate(31.096875 172.964933)scale(0.1 -0.1)">
       <use xlink:href="#DejaVuSans-30"/>
       <use x="63.623047" xlink:href="#DejaVuSans-2e"/>
       <use x="95.410156" xlink:href="#DejaVuSans-34"/>
      </g>
     </g>
    </g>
    <g id="ytick_4">
     <g id="line2d_10">
      <g>
       <use style="stroke:#000000;stroke-width:0.8;" x="54" xlink:href="#me9a3e959ea" y="127.748571"/>
      </g>
     </g>
     <g id="text_11">
      <!-- 0.6 -->
      <g transform="translate(31.096875 131.54779)scale(0.1 -0.1)">
       <use xlink:href="#DejaVuSans-30"/>
       <use x="63.623047" xlink:href="#DejaVuSans-2e"/>
       <use x="95.410156" xlink:href="#DejaVuSans-36"/>
      </g>
     </g>
    </g>
    <g id="ytick_5">
     <g id="line2d_11">
      <g>
       <use style="stroke:#000000;stroke-width:0.8;" x="54" xlink:href="#me9a3e959ea" y="86.331429"/>
      </g>
     </g>
     <g id="text_12">
      <!-- 0.8 -->
      <g transform="translate(31.096875 90.130647)scale(0.1 -0.1)">
       <use xlink:href="#DejaVuSans-30"/>
       <use x="63.623047" xlink:href="#DejaVuSans-2e"/>
       <use x="95.410156" xlink:href="#DejaVuSans-38"/>
      </g>
     </g>
    </g>
    <g id="ytick_6">
     <g id="line2d_12">
      <g>
       <use style="stroke:#000000;stroke-width:0.8;" x="54" xlink:href="#me9a3e959ea" y="44.914286"/>
      </g>
     </g>
     <g id="text_13">
      <!-- 1.0 -->
      <g transform="translate(31.096875 48.713504)scale(0.1 -0.1)">
       <use xlink:href="#DejaVuSans-31"/>
       <use x="63.623047" xlink:href="#DejaVuSans-2e"/>
       <use x="95.410156" xlink:href="#DejaVuSans-30"/>
      </g>
     </g>
    </g>
    <g id="text_14">
     <!-- True Positive Rate -->
     <defs>
      <path d="M -0.296875 72.90625 
L 61.375 72.90625 
L 61.375 64.59375 
L 35.5 64.59375 
L 35.5 0 
L 25.59375 0 
L 25.59375 64.59375 
L -0.296875 64.59375 
z
" id="DejaVuSans-54"/>
      <path d="M 41.109375 46.296875 
Q 39.59375 47.171875 37.8125 47.578125 
Q 36.03125 48 33.890625 48 
Q 26.265625 48 22.1875 43.046875 
Q 18.109375 38.09375 18.109375 28.8125 
L 18.109375 0 
L 9.078125 0 
L 9.078125 54.6875 
L 18.109375 54.6875 
L 18.109375 46.1875 
Q 20.953125 51.171875 25.484375 53.578125 
Q 30.03125 56 36.53125 56 
Q 37.453125 56 38.578125 55.875 
Q 39.703125 55.765625 41.0625 55.515625 
z
" id="DejaVuSans-72"/>
      <path d="M 8.5 21.578125 
L 8.5 54.6875 
L 17.484375 54.6875 
L 17.484375 21.921875 
Q 17.484375 14.15625 20.5 10.265625 
Q 23.53125 6.390625 29.59375 6.390625 
Q 36.859375 6.390625 41.078125 11.03125 
Q 45.3125 15.671875 45.3125 23.6875 
L 45.3125 54.6875 
L 54.296875 54.6875 
L 54.296875 0 
L 45.3125 0 
L 45.3125 8.40625 
Q 42.046875 3.421875 37.71875 1 
Q 33.40625 -1.421875 27.6875 -1.421875 
Q 18.265625 -1.421875 13.375 4.4375 
Q 8.5 10.296875 8.5 21.578125 
z
M 31.109375 56 
z
" id="DejaVuSans-75"/>
     </defs>
     <g transform="translate(25.017187 188.826094)rotate(-90)scale(0.1 -0.1)">
      <use xlink:href="#DejaVuSans-54"/>
      <use x="60.865234" xlink:href="#DejaVuSans-72"/>
      <use x="101.978516" xlink:href="#DejaVuSans-75"/>
      <use x="165.357422" xlink:href="#DejaVuSans-65"/>
      <use x="226.880859" xlink:href="#DejaVuSans-20"/>
      <use x="258.667969" xlink:href="#DejaVuSans-50"/>
      <use x="318.923828" xlink:href="#DejaVuSans-6f"/>
      <use x="380.105469" xlink:href="#DejaVuSans-73"/>
      <use x="432.205078" xlink:href="#DejaVuSans-69"/>
      <use x="459.988281" xlink:href="#DejaVuSans-74"/>
      <use x="499.197266" xlink:href="#DejaVuSans-69"/>
      <use x="526.980469" xlink:href="#DejaVuSans-76"/>
      <use x="586.160156" xlink:href="#DejaVuSans-65"/>
      <use x="647.683594" xlink:href="#DejaVuSans-20"/>
      <use x="679.470703" xlink:href="#DejaVuSans-52"/>
      <use x="748.921875" xlink:href="#DejaVuSans-61"/>
      <use x="810.201172" xlink:href="#DejaVuSans-74"/>
      <use x="849.410156" xlink:href="#DejaVuSans-65"/>
     </g>
    </g>
   </g>
   <g id="line2d_13">
    <path clip-path="url(#pac9fcdec19)" d="M 54 251.858548 
L 54 246.200468 
L 54.220699 246.200468 
L 54.220699 220.03185 
L 54.441397 220.03185 
L 54.441397 218.334426 
L 54.662096 218.334426 
L 54.662096 206.876815 
L 54.882795 206.735363 
L 54.882795 202.916159 
L 55.103494 202.916159 
L 55.103494 199.521311 
L 55.324192 199.521311 
L 55.324192 196.975176 
L 55.544891 196.975176 
L 55.544891 196.267916 
L 55.76559 196.267916 
L 55.76559 195.84356 
L 55.986289 195.84356 
L 55.986289 194.146136 
L 56.206987 194.146136 
L 56.206987 191.882904 
L 56.427686 191.882904 
L 56.427686 189.053864 
L 56.648385 189.053864 
L 56.648385 188.488056 
L 56.869084 188.488056 
L 56.869084 188.0637 
L 57.089782 188.0637 
L 57.089782 187.922248 
L 57.310481 187.922248 
L 57.310481 187.639344 
L 57.53118 187.639344 
L 57.53118 185.659016 
L 57.751879 185.659016 
L 57.751879 182.688525 
L 57.972577 182.688525 
L 57.972577 182.405621 
L 58.193276 182.405621 
L 58.193276 181.981265 
L 58.413975 181.981265 
L 58.413975 181.132553 
L 58.634674 181.132553 
L 58.634674 179.152225 
L 58.855372 179.152225 
L 58.855372 178.869321 
L 59.076071 178.869321 
L 59.076071 177.454801 
L 59.517469 177.454801 
L 59.517469 175.757377 
L 59.738167 175.757377 
L 59.738167 173.494145 
L 59.958866 173.494145 
L 59.958866 173.069789 
L 60.179565 173.069789 
L 60.179565 171.089461 
L 60.400264 171.089461 
L 60.400264 170.806557 
L 60.620962 170.806557 
L 60.620962 169.957845 
L 60.841661 169.957845 
L 60.841661 169.392037 
L 61.06236 169.392037 
L 61.06236 167.977518 
L 61.283059 167.977518 
L 61.283059 165.99719 
L 61.503757 165.855738 
L 61.503757 165.714286 
L 61.724456 165.714286 
L 61.724456 162.177986 
L 61.945155 162.177986 
L 61.945155 160.904918 
L 62.165854 160.904918 
L 62.165854 159.348946 
L 62.386552 159.348946 
L 62.386552 158.075878 
L 62.607251 158.075878 
L 62.607251 156.944262 
L 62.82795 156.944262 
L 62.82795 156.80281 
L 63.048649 156.80281 
L 63.048649 155.38829 
L 63.269347 155.38829 
L 63.269347 154.68103 
L 63.490046 154.68103 
L 63.490046 154.256674 
L 63.710745 154.256674 
L 63.710745 153.832319 
L 63.931444 153.832319 
L 63.931444 153.407963 
L 64.59354 153.407963 
L 64.59354 152.983607 
L 64.814239 152.983607 
L 64.814239 149.730211 
L 65.034937 149.730211 
L 65.034937 149.588759 
L 65.255636 149.588759 
L 65.255636 149.447307 
L 65.476335 149.447307 
L 65.476335 148.457143 
L 65.697034 148.457143 
L 65.697034 148.032787 
L 66.579829 148.032787 
L 66.579829 147.042623 
L 66.800527 147.042623 
L 66.800527 146.476815 
L 67.021226 146.476815 
L 67.021226 145.486651 
L 67.241925 145.486651 
L 67.241925 144.637939 
L 67.683322 144.637939 
L 67.683322 143.081967 
L 67.904021 143.081967 
L 67.904021 142.657611 
L 68.12472 142.657611 
L 68.12472 141.950351 
L 68.345419 141.950351 
L 68.345419 141.525995 
L 68.566117 141.525995 
L 68.566117 139.404215 
L 68.786816 139.404215 
L 68.786816 138.979859 
L 69.007515 138.979859 
L 69.007515 138.131148 
L 69.228214 138.131148 
L 69.228214 137.423888 
L 69.448912 137.423888 
L 69.448912 137.282436 
L 69.669611 137.282436 
L 69.669611 136.15082 
L 69.89031 136.15082 
L 69.89031 135.726464 
L 70.111009 135.726464 
L 70.111009 134.7363 
L 70.331707 134.7363 
L 70.331707 133.180328 
L 70.993804 133.180328 
L 70.993804 133.038876 
L 71.214502 133.038876 
L 71.214502 132.897424 
L 71.435201 132.897424 
L 71.435201 132.755972 
L 71.876599 132.755972 
L 71.876599 132.61452 
L 72.097297 132.61452 
L 72.097297 132.048712 
L 72.317996 132.048712 
L 72.317996 131.765808 
L 72.538695 131.765808 
L 72.538695 131.2 
L 72.759394 131.2 
L 72.759394 130.068384 
L 72.980092 130.068384 
L 72.980092 129.926932 
L 73.200791 129.926932 
L 73.200791 129.644028 
L 73.642189 129.644028 
L 73.642189 129.502576 
L 73.862887 129.502576 
L 73.862887 129.07822 
L 74.083586 129.07822 
L 74.083586 128.229508 
L 74.304285 128.229508 
L 74.304285 128.088056 
L 74.524984 128.088056 
L 74.524984 127.239344 
L 74.745682 127.239344 
L 74.745682 126.532084 
L 75.18708 126.532084 
L 75.18708 124.976112 
L 75.407779 124.976112 
L 75.407779 123.844496 
L 75.849176 123.844496 
L 75.849176 123.561593 
L 76.290574 123.561593 
L 76.290574 123.420141 
L 76.511272 123.420141 
L 76.511272 122.429977 
L 76.731971 122.429977 
L 76.731971 122.288525 
L 76.95267 122.288525 
L 76.95267 122.147073 
L 77.173368 122.147073 
L 77.173368 121.864169 
L 77.394067 121.864169 
L 77.394067 120.166745 
L 78.056163 120.166745 
L 78.056163 119.318033 
L 78.276862 119.318033 
L 78.276862 119.035129 
L 78.497561 119.035129 
L 78.497561 118.327869 
L 78.938958 118.327869 
L 78.938958 118.186417 
L 79.159657 118.186417 
L 79.159657 117.054801 
L 79.601055 117.054801 
L 79.601055 116.347541 
L 80.042452 116.347541 
L 80.042452 114.650117 
L 80.263151 114.650117 
L 80.263151 113.801405 
L 80.704548 113.801405 
L 80.704548 113.377049 
L 80.925247 113.377049 
L 80.925247 113.094145 
L 81.145946 113.094145 
L 81.145946 112.669789 
L 81.366645 112.669789 
L 81.366645 112.386885 
L 81.587343 112.386885 
L 81.587343 111.962529 
L 82.028741 111.962529 
L 82.028741 111.255269 
L 82.470138 111.255269 
L 82.470138 111.113817 
L 82.911536 111.113817 
L 82.911536 110.123653 
L 83.794331 110.123653 
L 83.794331 109.982201 
L 84.01503 109.982201 
L 84.01503 109.557845 
L 84.677126 109.557845 
L 84.677126 109.416393 
L 84.897825 109.416393 
L 84.897825 108.567681 
L 85.118523 108.567681 
L 85.118523 107.436066 
L 85.339222 107.436066 
L 85.339222 107.294614 
L 85.559921 107.294614 
L 85.559921 106.870258 
L 85.78062 106.870258 
L 85.78062 106.587354 
L 86.001318 106.587354 
L 86.001318 106.30445 
L 86.442716 106.30445 
L 86.442716 106.162998 
L 87.104812 106.162998 
L 87.104812 105.880094 
L 87.325511 105.880094 
L 87.325511 105.59719 
L 87.54621 105.59719 
L 87.54621 105.314286 
L 87.987607 105.314286 
L 87.987607 105.172834 
L 88.429005 105.172834 
L 88.429005 104.88993 
L 88.649703 104.88993 
L 88.649703 104.748478 
L 88.870402 104.748478 
L 88.870402 103.616862 
L 89.091101 103.616862 
L 89.091101 103.47541 
L 89.3118 103.47541 
L 89.3118 103.192506 
L 89.973896 103.192506 
L 89.973896 102.909602 
L 90.635992 102.909602 
L 90.635992 102.485246 
L 90.856691 102.485246 
L 90.856691 102.202342 
L 91.298088 102.202342 
L 91.298088 101.919438 
L 91.739486 101.919438 
L 91.739486 101.495082 
L 91.960185 101.495082 
L 91.960185 101.070726 
L 92.180883 101.070726 
L 92.180883 100.504918 
L 92.622281 100.504918 
L 92.622281 100.363466 
L 92.84298 100.363466 
L 92.84298 99.797658 
L 93.063678 99.797658 
L 93.063678 99.373302 
L 93.284377 99.373302 
L 93.284377 99.23185 
L 93.725775 99.23185 
L 93.725775 99.090398 
L 93.946473 99.090398 
L 93.946473 98.948946 
L 94.167172 98.948946 
L 94.167172 98.100234 
L 94.387871 98.100234 
L 94.387871 97.392974 
L 94.60857 97.392974 
L 94.60857 97.251522 
L 94.829268 97.251522 
L 94.829268 97.11007 
L 95.049967 97.11007 
L 95.049967 96.685714 
L 95.491365 96.685714 
L 95.491365 96.544262 
L 95.712063 96.544262 
L 95.712063 96.261358 
L 96.815557 96.261358 
L 96.815557 96.119906 
L 97.036256 96.119906 
L 97.036256 95.69555 
L 97.698352 95.69555 
L 97.698352 95.554098 
L 98.13975 95.554098 
L 98.13975 94.98829 
L 98.581147 94.98829 
L 98.581147 94.846838 
L 98.801846 94.846838 
L 98.801846 94.705386 
L 99.243243 94.705386 
L 99.243243 94.28103 
L 99.463942 94.28103 
L 99.463942 93.856674 
L 99.684641 93.856674 
L 99.684641 93.715222 
L 100.346737 93.715222 
L 100.346737 93.432319 
L 100.567436 93.432319 
L 100.567436 93.290867 
L 101.008833 93.290867 
L 101.008833 93.007963 
L 101.450231 93.007963 
L 101.450231 92.583607 
L 102.774423 92.583607 
L 102.774423 91.593443 
L 103.436519 91.593443 
L 103.436519 91.027635 
L 104.098616 91.027635 
L 104.098616 90.744731 
L 104.540013 90.744731 
L 104.540013 90.461827 
L 104.760712 90.461827 
L 104.760712 90.320375 
L 104.981411 90.320375 
L 104.981411 90.178923 
L 105.643507 90.178923 
L 105.643507 90.037471 
L 106.084904 90.037471 
L 106.084904 89.896019 
L 106.305603 89.896019 
L 106.305603 89.613115 
L 106.967699 89.613115 
L 106.967699 89.330211 
L 107.409097 89.330211 
L 107.409097 89.188759 
L 108.071193 89.188759 
L 108.071193 88.905855 
L 108.733289 88.905855 
L 108.733289 88.764403 
L 109.174687 88.764403 
L 109.174687 88.622951 
L 110.057482 88.622951 
L 110.057482 88.481499 
L 111.160976 88.481499 
L 111.160976 88.057143 
L 111.602373 88.057143 
L 111.602373 87.774239 
L 111.823072 87.774239 
L 111.823072 87.491335 
L 112.705867 87.491335 
L 112.705867 87.208431 
L 113.147264 87.208431 
L 113.147264 86.925527 
L 113.367963 86.925527 
L 113.367963 86.642623 
L 113.588662 86.642623 
L 113.588662 86.359719 
L 114.471457 86.359719 
L 114.471457 86.076815 
L 114.692156 86.076815 
L 114.692156 85.935363 
L 115.354252 85.935363 
L 115.354252 85.793911 
L 115.795649 85.793911 
L 115.795649 85.511007 
L 116.237047 85.511007 
L 116.237047 84.945199 
L 116.678444 84.945199 
L 116.678444 84.803747 
L 117.340541 84.803747 
L 117.340541 84.237939 
L 117.781938 84.237939 
L 117.781938 83.955035 
L 118.223336 83.955035 
L 118.223336 83.813583 
L 118.444034 83.813583 
L 118.444034 83.106323 
L 118.664733 83.106323 
L 118.664733 82.964871 
L 119.547528 82.964871 
L 119.547528 82.823419 
L 121.092419 82.823419 
L 121.092419 82.681967 
L 121.313118 82.681967 
L 121.313118 82.399063 
L 121.754515 82.399063 
L 121.754515 82.116159 
L 122.195913 82.116159 
L 122.195913 81.974707 
L 123.740804 81.974707 
L 123.740804 81.267447 
L 124.182202 81.267447 
L 124.182202 81.125995 
L 124.844298 81.125995 
L 124.844298 80.843091 
L 125.064997 80.843091 
L 125.064997 80.701639 
L 125.285695 80.701639 
L 125.285695 80.560187 
L 127.051285 80.560187 
L 127.051285 80.277283 
L 127.271984 80.277283 
L 127.271984 80.135831 
L 128.154779 80.135831 
L 128.154779 79.994379 
L 128.596177 79.994379 
L 128.596177 79.570023 
L 129.037574 79.570023 
L 129.037574 79.428571 
L 129.920369 79.428571 
L 129.920369 79.287119 
L 130.141068 79.287119 
L 130.141068 79.004215 
L 131.46526 79.004215 
L 131.46526 78.579859 
L 131.685959 78.579859 
L 131.685959 78.296956 
L 132.127357 78.296956 
L 132.127357 78.014052 
L 133.010152 78.014052 
L 133.010152 77.8726 
L 133.451549 77.8726 
L 133.451549 77.731148 
L 133.892947 77.731148 
L 133.892947 77.448244 
L 134.113645 77.448244 
L 134.113645 77.306792 
L 134.99644 77.306792 
L 134.99644 77.16534 
L 136.982729 77.16534 
L 136.982729 77.023888 
L 138.086223 77.023888 
L 138.086223 76.882436 
L 138.52762 76.882436 
L 138.52762 76.599532 
L 139.189717 76.599532 
L 139.189717 76.45808 
L 139.410415 76.45808 
L 139.851813 76.316628 
L 139.851813 76.175176 
L 141.617403 76.175176 
L 141.617403 76.033724 
L 142.720897 76.033724 
L 142.720897 75.75082 
L 142.941595 75.75082 
L 142.941595 75.609368 
L 143.162294 75.609368 
L 143.162294 75.326464 
L 143.382993 75.326464 
L 143.382993 75.185012 
L 143.603691 75.185012 
L 143.603691 75.04356 
L 146.472775 75.04356 
L 146.472775 74.477752 
L 146.693474 74.477752 
L 146.693474 74.194848 
L 147.796968 74.194848 
L 147.796968 74.053396 
L 149.562558 74.053396 
L 149.562558 73.911944 
L 151.328148 73.911944 
L 151.328148 73.62904 
L 151.769545 73.62904 
L 151.769545 73.487588 
L 151.990244 73.487588 
L 151.990244 73.346136 
L 153.314436 73.346136 
L 153.314436 73.204684 
L 153.535135 73.204684 
L 153.535135 73.063232 
L 154.859328 73.063232 
L 154.859328 72.92178 
L 155.080026 72.92178 
L 155.080026 72.780328 
L 155.962821 72.780328 
L 155.962821 72.638876 
L 156.18352 72.638876 
L 156.18352 72.497424 
L 156.404219 72.497424 
L 156.404219 72.355972 
L 156.845616 72.355972 
L 156.845616 72.21452 
L 157.287014 72.21452 
L 157.287014 72.073068 
L 158.390508 72.073068 
L 158.390508 71.931616 
L 159.494001 71.931616 
L 159.494001 71.648712 
L 159.7147 71.648712 
L 159.7147 71.50726 
L 160.156098 71.50726 
L 160.156098 71.365808 
L 161.48029 71.365808 
L 161.48029 71.224356 
L 161.921688 71.224356 
L 161.921688 71.082904 
L 162.142386 71.082904 
L 162.142386 70.941452 
L 162.363085 70.941452 
L 162.363085 70.8 
L 162.804483 70.8 
L 162.804483 70.658548 
L 166.114964 70.658548 
L 166.114964 70.517096 
L 167.218457 70.517096 
L 167.218457 70.09274 
L 167.439156 70.09274 
L 167.439156 69.951288 
L 169.646144 69.951288 
L 169.646144 69.809836 
L 169.866842 69.809836 
L 169.866842 69.668384 
L 171.853131 69.668384 
L 171.853131 69.526932 
L 172.294529 69.526932 
L 172.294529 69.38548 
L 172.515227 69.38548 
L 172.515227 69.244028 
L 172.735926 69.244028 
L 172.735926 69.102576 
L 173.83942 69.102576 
L 173.83942 68.961124 
L 174.501516 68.961124 
L 174.501516 68.819672 
L 174.942914 68.819672 
L 174.942914 68.536768 
L 176.046407 68.536768 
L 176.046407 68.395316 
L 176.929202 68.395316 
L 176.929202 68.253864 
L 177.591299 68.253864 
L 177.591299 68.112412 
L 177.811997 68.112412 
L 177.811997 67.97096 
L 179.13619 67.97096 
L 179.13619 67.829508 
L 180.018985 67.829508 
L 180.018985 67.688056 
L 182.66737 67.688056 
L 182.66737 67.546604 
L 183.329466 67.546604 
L 183.329466 67.405152 
L 183.550165 67.405152 
L 183.550165 67.2637 
L 184.43296 67.2637 
L 184.43296 66.980796 
L 184.874357 66.980796 
L 184.874357 66.839344 
L 186.419249 66.839344 
L 186.419249 66.697892 
L 186.639947 66.697892 
L 186.639947 66.55644 
L 187.081345 66.55644 
L 187.081345 66.414988 
L 188.405537 66.414988 
L 188.405537 66.132084 
L 189.067633 66.132084 
L 189.067633 65.990632 
L 189.288332 65.990632 
L 189.288332 65.84918 
L 189.509031 65.84918 
L 189.509031 65.566276 
L 190.391826 65.566276 
L 190.391826 65.424824 
L 190.612525 65.424824 
L 190.612525 65.283372 
L 190.833223 65.283372 
L 190.833223 65.14192 
L 191.053922 65.14192 
L 191.053922 64.859016 
L 192.157416 64.859016 
L 192.157416 64.717564 
L 193.040211 64.717564 
L 193.040211 64.576112 
L 193.923006 64.576112 
L 193.923006 63.7274 
L 194.585102 63.7274 
L 194.585102 63.444496 
L 195.467897 63.444496 
L 195.467897 63.161593 
L 198.55768 63.161593 
L 198.55768 62.878689 
L 199.219776 62.878689 
L 199.219776 62.737237 
L 199.440475 62.737237 
L 199.440475 62.595785 
L 200.102571 62.595785 
L 200.102571 62.454333 
L 200.764667 62.454333 
L 200.764667 62.312881 
L 201.206065 62.312881 
L 201.206065 62.029977 
L 202.971655 62.029977 
L 202.971655 61.888525 
L 203.633751 61.888525 
L 203.633751 61.747073 
L 204.295847 61.747073 
L 204.295847 61.605621 
L 205.178642 61.605621 
L 205.178642 61.464169 
L 205.399341 61.464169 
L 205.399341 61.181265 
L 205.62004 61.181265 
L 205.62004 61.039813 
L 207.164931 61.039813 
L 207.164931 60.898361 
L 208.489123 60.898361 
L 208.489123 60.756909 
L 209.592617 60.756909 
L 209.592617 60.615457 
L 209.813316 60.615457 
L 209.813316 60.191101 
L 210.475412 60.191101 
L 210.475412 60.049649 
L 210.916809 60.049649 
L 210.916809 59.908197 
L 211.578906 59.908197 
L 211.578906 59.625293 
L 212.461701 59.625293 
L 212.461701 59.483841 
L 212.682399 59.483841 
L 212.682399 59.342389 
L 212.903098 59.342389 
L 212.903098 59.200937 
L 215.330784 59.200937 
L 215.330784 59.059485 
L 218.199868 59.059485 
L 218.199868 58.776581 
L 218.420567 58.776581 
L 218.420567 58.493677 
L 218.641266 58.493677 
L 218.641266 58.352225 
L 220.627554 58.352225 
L 220.627554 58.210773 
L 220.848253 58.210773 
L 220.848253 58.069321 
L 221.068952 58.069321 
L 221.068952 57.927869 
L 223.055241 57.927869 
L 223.055241 57.786417 
L 223.275939 57.786417 
L 223.275939 57.644965 
L 223.496638 57.644965 
L 223.496638 57.503513 
L 225.482927 57.503513 
L 225.482927 57.362061 
L 225.924324 57.362061 
L 225.924324 57.220609 
L 228.352011 57.220609 
L 228.352011 56.937705 
L 229.455504 56.937705 
L 229.455504 56.796253 
L 231.662492 56.796253 
L 231.662492 56.654801 
L 233.428082 56.654801 
L 233.428082 56.513349 
L 233.869479 56.513349 
L 233.869479 56.371897 
L 236.517864 56.371897 
L 236.517864 56.230445 
L 236.959262 56.230445 
L 236.959262 55.806089 
L 237.400659 55.806089 
L 237.400659 55.664637 
L 238.062755 55.664637 
L 238.062755 55.523185 
L 240.71114 55.523185 
L 240.71114 55.240281 
L 243.138827 55.240281 
L 243.138827 55.098829 
L 245.125115 55.098829 
L 245.125115 54.957377 
L 246.449308 54.957377 
L 246.449308 54.815925 
L 247.994199 54.815925 
L 247.994199 54.674473 
L 248.876994 54.674473 
L 248.876994 54.533021 
L 250.201187 54.533021 
L 250.201187 54.391569 
L 250.421885 54.391569 
L 250.421885 54.250117 
L 250.642584 54.250117 
L 250.642584 54.108665 
L 252.849572 54.108665 
L 252.849572 53.967213 
L 253.290969 53.967213 
L 253.290969 53.825761 
L 257.484245 53.825761 
L 257.484245 53.684309 
L 257.704944 53.684309 
L 257.704944 53.542857 
L 258.587739 53.542857 
L 258.587739 53.401405 
L 259.911931 53.401405 
L 259.911931 53.259953 
L 260.13263 53.259953 
L 260.13263 53.118501 
L 261.015425 53.118501 
L 261.015425 52.694145 
L 261.677521 52.694145 
L 261.677521 52.552693 
L 262.118919 52.552693 
L 262.118919 52.269789 
L 262.781015 52.269789 
L 262.781015 52.128337 
L 263.001714 52.128337 
L 263.001714 51.986885 
L 263.443111 51.986885 
L 263.443111 51.845433 
L 267.636388 51.845433 
L 267.636388 51.703981 
L 268.077785 51.703981 
L 268.077785 51.562529 
L 270.284773 51.562529 
L 270.284773 51.421077 
L 275.581543 51.421077 
L 275.581543 51.279625 
L 276.02294 51.279625 
L 276.02294 51.138173 
L 278.450626 51.138173 
L 278.450626 50.996721 
L 283.747396 50.996721 
L 283.747396 50.572365 
L 284.188794 50.572365 
L 284.188794 50.430913 
L 285.292287 50.430913 
L 285.292287 50.289461 
L 285.954384 50.289461 
L 285.954384 50.148009 
L 289.485564 50.148009 
L 289.485564 50.006557 
L 289.706262 50.006557 
L 289.706262 49.865105 
L 290.809756 49.865105 
L 290.809756 49.723653 
L 292.796045 49.723653 
L 292.796045 49.582201 
L 295.44443 49.582201 
L 295.44443 49.440749 
L 299.858405 49.440749 
L 299.858405 49.157845 
L 302.50679 49.157845 
L 302.50679 49.016393 
L 304.27238 49.016393 
L 304.27238 48.874941 
L 307.141463 48.874941 
L 307.141463 48.733489 
L 310.231246 48.733489 
L 310.231246 48.592037 
L 311.114041 48.592037 
L 311.114041 48.309133 
L 311.996836 48.309133 
L 311.996836 48.167681 
L 313.762426 48.167681 
L 313.762426 47.884778 
L 317.735003 47.884778 
L 317.735003 47.743326 
L 320.383388 47.743326 
L 320.383388 47.601874 
L 321.266183 47.601874 
L 321.266183 47.460422 
L 322.369677 47.460422 
L 322.369677 47.31897 
L 323.693869 47.31897 
L 323.693869 47.177518 
L 329.652736 47.177518 
L 329.652736 47.036066 
L 340.687673 47.036066 
L 340.687673 46.894614 
L 343.336058 46.894614 
L 343.336058 46.753162 
L 347.970732 46.753162 
L 347.970732 46.61171 
L 350.177719 46.61171 
L 350.177719 46.470258 
L 356.577983 46.470258 
L 356.577983 46.328806 
L 358.122874 46.328806 
L 358.122874 46.187354 
L 359.226368 46.187354 
L 359.226368 46.045902 
L 373.130389 46.045902 
L 373.130389 45.90445 
L 373.571786 45.90445 
L 373.571786 45.762998 
L 377.323665 45.762998 
L 377.323665 45.621546 
L 386.151615 45.621546 
L 386.151615 45.480094 
L 386.813711 45.480094 
L 386.813711 45.19719 
L 388.8 45.19719 
L 388.8 44.914286 
L 388.8 44.914286 
" style="fill:none;stroke:#ff8c00;stroke-linecap:square;stroke-width:2;"/>
   </g>
   <g id="line2d_14">
    <path clip-path="url(#pac9fcdec19)" d="M 54 252 
L 388.8 44.914286 
" style="fill:none;stroke:#000080;stroke-dasharray:7.4,3.2;stroke-dashoffset:0;stroke-width:2;"/>
   </g>
   <g id="patch_3">
    <path d="M 54 252 
L 54 34.56 
" style="fill:none;stroke:#000000;stroke-linecap:square;stroke-linejoin:miter;stroke-width:0.8;"/>
   </g>
   <g id="patch_4">
    <path d="M 388.8 252 
L 388.8 34.56 
" style="fill:none;stroke:#000000;stroke-linecap:square;stroke-linejoin:miter;stroke-width:0.8;"/>
   </g>
   <g id="patch_5">
    <path d="M 54 252 
L 388.8 252 
" style="fill:none;stroke:#000000;stroke-linecap:square;stroke-linejoin:miter;stroke-width:0.8;"/>
   </g>
   <g id="patch_6">
    <path d="M 54 34.56 
L 388.8 34.56 
" style="fill:none;stroke:#000000;stroke-linecap:square;stroke-linejoin:miter;stroke-width:0.8;"/>
   </g>
   <g id="text_15">
    <!-- Receiver operating characteristic  -->
    <defs>
     <path d="M 48.78125 52.59375 
L 48.78125 44.1875 
Q 44.96875 46.296875 41.140625 47.34375 
Q 37.3125 48.390625 33.40625 48.390625 
Q 24.65625 48.390625 19.8125 42.84375 
Q 14.984375 37.3125 14.984375 27.296875 
Q 14.984375 17.28125 19.8125 11.734375 
Q 24.65625 6.203125 33.40625 6.203125 
Q 37.3125 6.203125 41.140625 7.25 
Q 44.96875 8.296875 48.78125 10.40625 
L 48.78125 2.09375 
Q 45.015625 0.34375 40.984375 -0.53125 
Q 36.96875 -1.421875 32.421875 -1.421875 
Q 20.0625 -1.421875 12.78125 6.34375 
Q 5.515625 14.109375 5.515625 27.296875 
Q 5.515625 40.671875 12.859375 48.328125 
Q 20.21875 56 33.015625 56 
Q 37.15625 56 41.109375 55.140625 
Q 45.0625 54.296875 48.78125 52.59375 
z
" id="DejaVuSans-63"/>
     <path d="M 18.109375 8.203125 
L 18.109375 -20.796875 
L 9.078125 -20.796875 
L 9.078125 54.6875 
L 18.109375 54.6875 
L 18.109375 46.390625 
Q 20.953125 51.265625 25.265625 53.625 
Q 29.59375 56 35.59375 56 
Q 45.5625 56 51.78125 48.09375 
Q 58.015625 40.1875 58.015625 27.296875 
Q 58.015625 14.40625 51.78125 6.484375 
Q 45.5625 -1.421875 35.59375 -1.421875 
Q 29.59375 -1.421875 25.265625 0.953125 
Q 20.953125 3.328125 18.109375 8.203125 
z
M 48.6875 27.296875 
Q 48.6875 37.203125 44.609375 42.84375 
Q 40.53125 48.484375 33.40625 48.484375 
Q 26.265625 48.484375 22.1875 42.84375 
Q 18.109375 37.203125 18.109375 27.296875 
Q 18.109375 17.390625 22.1875 11.75 
Q 26.265625 6.109375 33.40625 6.109375 
Q 40.53125 6.109375 44.609375 11.75 
Q 48.6875 17.390625 48.6875 27.296875 
z
" id="DejaVuSans-70"/>
     <path d="M 54.890625 33.015625 
L 54.890625 0 
L 45.90625 0 
L 45.90625 32.71875 
Q 45.90625 40.484375 42.875 44.328125 
Q 39.84375 48.1875 33.796875 48.1875 
Q 26.515625 48.1875 22.3125 43.546875 
Q 18.109375 38.921875 18.109375 30.90625 
L 18.109375 0 
L 9.078125 0 
L 9.078125 54.6875 
L 18.109375 54.6875 
L 18.109375 46.1875 
Q 21.34375 51.125 25.703125 53.5625 
Q 30.078125 56 35.796875 56 
Q 45.21875 56 50.046875 50.171875 
Q 54.890625 44.34375 54.890625 33.015625 
z
" id="DejaVuSans-6e"/>
     <path d="M 45.40625 27.984375 
Q 45.40625 37.75 41.375 43.109375 
Q 37.359375 48.484375 30.078125 48.484375 
Q 22.859375 48.484375 18.828125 43.109375 
Q 14.796875 37.75 14.796875 27.984375 
Q 14.796875 18.265625 18.828125 12.890625 
Q 22.859375 7.515625 30.078125 7.515625 
Q 37.359375 7.515625 41.375 12.890625 
Q 45.40625 18.265625 45.40625 27.984375 
z
M 54.390625 6.78125 
Q 54.390625 -7.171875 48.1875 -13.984375 
Q 42 -20.796875 29.203125 -20.796875 
Q 24.46875 -20.796875 20.265625 -20.09375 
Q 16.0625 -19.390625 12.109375 -17.921875 
L 12.109375 -9.1875 
Q 16.0625 -11.328125 19.921875 -12.34375 
Q 23.78125 -13.375 27.78125 -13.375 
Q 36.625 -13.375 41.015625 -8.765625 
Q 45.40625 -4.15625 45.40625 5.171875 
L 45.40625 9.625 
Q 42.625 4.78125 38.28125 2.390625 
Q 33.9375 0 27.875 0 
Q 17.828125 0 11.671875 7.65625 
Q 5.515625 15.328125 5.515625 27.984375 
Q 5.515625 40.671875 11.671875 48.328125 
Q 17.828125 56 27.875 56 
Q 33.9375 56 38.28125 53.609375 
Q 42.625 51.21875 45.40625 46.390625 
L 45.40625 54.6875 
L 54.390625 54.6875 
z
" id="DejaVuSans-67"/>
     <path d="M 54.890625 33.015625 
L 54.890625 0 
L 45.90625 0 
L 45.90625 32.71875 
Q 45.90625 40.484375 42.875 44.328125 
Q 39.84375 48.1875 33.796875 48.1875 
Q 26.515625 48.1875 22.3125 43.546875 
Q 18.109375 38.921875 18.109375 30.90625 
L 18.109375 0 
L 9.078125 0 
L 9.078125 75.984375 
L 18.109375 75.984375 
L 18.109375 46.1875 
Q 21.34375 51.125 25.703125 53.5625 
Q 30.078125 56 35.796875 56 
Q 45.21875 56 50.046875 50.171875 
Q 54.890625 44.34375 54.890625 33.015625 
z
" id="DejaVuSans-68"/>
    </defs>
    <g transform="translate(119.66625 28.56)scale(0.12 -0.12)">
     <use xlink:href="#DejaVuSans-52"/>
     <use x="69.419922" xlink:href="#DejaVuSans-65"/>
     <use x="130.943359" xlink:href="#DejaVuSans-63"/>
     <use x="185.923828" xlink:href="#DejaVuSans-65"/>
     <use x="247.447266" xlink:href="#DejaVuSans-69"/>
     <use x="275.230469" xlink:href="#DejaVuSans-76"/>
     <use x="334.410156" xlink:href="#DejaVuSans-65"/>
     <use x="395.933594" xlink:href="#DejaVuSans-72"/>
     <use x="437.046875" xlink:href="#DejaVuSans-20"/>
     <use x="468.833984" xlink:href="#DejaVuSans-6f"/>
     <use x="530.015625" xlink:href="#DejaVuSans-70"/>
     <use x="593.492188" xlink:href="#DejaVuSans-65"/>
     <use x="655.015625" xlink:href="#DejaVuSans-72"/>
     <use x="696.128906" xlink:href="#DejaVuSans-61"/>
     <use x="757.408203" xlink:href="#DejaVuSans-74"/>
     <use x="796.617188" xlink:href="#DejaVuSans-69"/>
     <use x="824.400391" xlink:href="#DejaVuSans-6e"/>
     <use x="887.779297" xlink:href="#DejaVuSans-67"/>
     <use x="951.255859" xlink:href="#DejaVuSans-20"/>
     <use x="983.042969" xlink:href="#DejaVuSans-63"/>
     <use x="1038.023438" xlink:href="#DejaVuSans-68"/>
     <use x="1101.402344" xlink:href="#DejaVuSans-61"/>
     <use x="1162.681641" xlink:href="#DejaVuSans-72"/>
     <use x="1203.794922" xlink:href="#DejaVuSans-61"/>
     <use x="1265.074219" xlink:href="#DejaVuSans-63"/>
     <use x="1320.054688" xlink:href="#DejaVuSans-74"/>
     <use x="1359.263672" xlink:href="#DejaVuSans-65"/>
     <use x="1420.787109" xlink:href="#DejaVuSans-72"/>
     <use x="1461.900391" xlink:href="#DejaVuSans-69"/>
     <use x="1489.683594" xlink:href="#DejaVuSans-73"/>
     <use x="1541.783203" xlink:href="#DejaVuSans-74"/>
     <use x="1580.992188" xlink:href="#DejaVuSans-69"/>
     <use x="1608.775391" xlink:href="#DejaVuSans-63"/>
     <use x="1663.755859" xlink:href="#DejaVuSans-20"/>
    </g>
   </g>
   <g id="legend_1">
    <g id="patch_7">
     <path d="M 219.9375 247 
L 381.8 247 
Q 383.8 247 383.8 245 
L 383.8 231.321875 
Q 383.8 229.321875 381.8 229.321875 
L 219.9375 229.321875 
Q 217.9375 229.321875 217.9375 231.321875 
L 217.9375 245 
Q 217.9375 247 219.9375 247 
z
" style="fill:#ffffff;opacity:0.8;stroke:#cccccc;stroke-linejoin:miter;"/>
    </g>
    <g id="line2d_15">
     <path d="M 221.9375 237.420312 
L 241.9375 237.420312 
" style="fill:none;stroke:#ff8c00;stroke-linecap:square;stroke-width:2;"/>
    </g>
    <g id="line2d_16"/>
    <g id="text_16">
     <!-- ROC curve (area = 0.883) -->
     <defs>
      <path d="M 39.40625 66.21875 
Q 28.65625 66.21875 22.328125 58.203125 
Q 16.015625 50.203125 16.015625 36.375 
Q 16.015625 22.609375 22.328125 14.59375 
Q 28.65625 6.59375 39.40625 6.59375 
Q 50.140625 6.59375 56.421875 14.59375 
Q 62.703125 22.609375 62.703125 36.375 
Q 62.703125 50.203125 56.421875 58.203125 
Q 50.140625 66.21875 39.40625 66.21875 
z
M 39.40625 74.21875 
Q 54.734375 74.21875 63.90625 63.9375 
Q 73.09375 53.65625 73.09375 36.375 
Q 73.09375 19.140625 63.90625 8.859375 
Q 54.734375 -1.421875 39.40625 -1.421875 
Q 24.03125 -1.421875 14.8125 8.828125 
Q 5.609375 19.09375 5.609375 36.375 
Q 5.609375 53.65625 14.8125 63.9375 
Q 24.03125 74.21875 39.40625 74.21875 
z
" id="DejaVuSans-4f"/>
      <path d="M 64.40625 67.28125 
L 64.40625 56.890625 
Q 59.421875 61.53125 53.78125 63.8125 
Q 48.140625 66.109375 41.796875 66.109375 
Q 29.296875 66.109375 22.65625 58.46875 
Q 16.015625 50.828125 16.015625 36.375 
Q 16.015625 21.96875 22.65625 14.328125 
Q 29.296875 6.6875 41.796875 6.6875 
Q 48.140625 6.6875 53.78125 8.984375 
Q 59.421875 11.28125 64.40625 15.921875 
L 64.40625 5.609375 
Q 59.234375 2.09375 53.4375 0.328125 
Q 47.65625 -1.421875 41.21875 -1.421875 
Q 24.65625 -1.421875 15.125 8.703125 
Q 5.609375 18.84375 5.609375 36.375 
Q 5.609375 53.953125 15.125 64.078125 
Q 24.65625 74.21875 41.21875 74.21875 
Q 47.75 74.21875 53.53125 72.484375 
Q 59.328125 70.75 64.40625 67.28125 
z
" id="DejaVuSans-43"/>
      <path d="M 31 75.875 
Q 24.46875 64.65625 21.28125 53.65625 
Q 18.109375 42.671875 18.109375 31.390625 
Q 18.109375 20.125 21.3125 9.0625 
Q 24.515625 -2 31 -13.1875 
L 23.1875 -13.1875 
Q 15.875 -1.703125 12.234375 9.375 
Q 8.59375 20.453125 8.59375 31.390625 
Q 8.59375 42.28125 12.203125 53.3125 
Q 15.828125 64.359375 23.1875 75.875 
z
" id="DejaVuSans-28"/>
      <path d="M 10.59375 45.40625 
L 73.1875 45.40625 
L 73.1875 37.203125 
L 10.59375 37.203125 
z
M 10.59375 25.484375 
L 73.1875 25.484375 
L 73.1875 17.1875 
L 10.59375 17.1875 
z
" id="DejaVuSans-3d"/>
      <path d="M 40.578125 39.3125 
Q 47.65625 37.796875 51.625 33 
Q 55.609375 28.21875 55.609375 21.1875 
Q 55.609375 10.40625 48.1875 4.484375 
Q 40.765625 -1.421875 27.09375 -1.421875 
Q 22.515625 -1.421875 17.65625 -0.515625 
Q 12.796875 0.390625 7.625 2.203125 
L 7.625 11.71875 
Q 11.71875 9.328125 16.59375 8.109375 
Q 21.484375 6.890625 26.8125 6.890625 
Q 36.078125 6.890625 40.9375 10.546875 
Q 45.796875 14.203125 45.796875 21.1875 
Q 45.796875 27.640625 41.28125 31.265625 
Q 36.765625 34.90625 28.71875 34.90625 
L 20.21875 34.90625 
L 20.21875 43.015625 
L 29.109375 43.015625 
Q 36.375 43.015625 40.234375 45.921875 
Q 44.09375 48.828125 44.09375 54.296875 
Q 44.09375 59.90625 40.109375 62.90625 
Q 36.140625 65.921875 28.71875 65.921875 
Q 24.65625 65.921875 20.015625 65.03125 
Q 15.375 64.15625 9.8125 62.3125 
L 9.8125 71.09375 
Q 15.4375 72.65625 20.34375 73.4375 
Q 25.25 74.21875 29.59375 74.21875 
Q 40.828125 74.21875 47.359375 69.109375 
Q 53.90625 64.015625 53.90625 55.328125 
Q 53.90625 49.265625 50.4375 45.09375 
Q 46.96875 40.921875 40.578125 39.3125 
z
" id="DejaVuSans-33"/>
      <path d="M 8.015625 75.875 
L 15.828125 75.875 
Q 23.140625 64.359375 26.78125 53.3125 
Q 30.421875 42.28125 30.421875 31.390625 
Q 30.421875 20.453125 26.78125 9.375 
Q 23.140625 -1.703125 15.828125 -13.1875 
L 8.015625 -13.1875 
Q 14.5 -2 17.703125 9.0625 
Q 20.90625 20.125 20.90625 31.390625 
Q 20.90625 42.671875 17.703125 53.65625 
Q 14.5 64.65625 8.015625 75.875 
z
" id="DejaVuSans-29"/>
     </defs>
     <g transform="translate(249.9375 240.920312)scale(0.1 -0.1)">
      <use xlink:href="#DejaVuSans-52"/>
      <use x="69.482422" xlink:href="#DejaVuSans-4f"/>
      <use x="148.193359" xlink:href="#DejaVuSans-43"/>
      <use x="218.017578" xlink:href="#DejaVuSans-20"/>
      <use x="249.804688" xlink:href="#DejaVuSans-63"/>
      <use x="304.785156" xlink:href="#DejaVuSans-75"/>
      <use x="368.164062" xlink:href="#DejaVuSans-72"/>
      <use x="409.277344" xlink:href="#DejaVuSans-76"/>
      <use x="468.457031" xlink:href="#DejaVuSans-65"/>
      <use x="529.980469" xlink:href="#DejaVuSans-20"/>
      <use x="561.767578" xlink:href="#DejaVuSans-28"/>
      <use x="600.78125" xlink:href="#DejaVuSans-61"/>
      <use x="662.060547" xlink:href="#DejaVuSans-72"/>
      <use x="703.142578" xlink:href="#DejaVuSans-65"/>
      <use x="764.666016" xlink:href="#DejaVuSans-61"/>
      <use x="825.945312" xlink:href="#DejaVuSans-20"/>
      <use x="857.732422" xlink:href="#DejaVuSans-3d"/>
      <use x="941.521484" xlink:href="#DejaVuSans-20"/>
      <use x="973.308594" xlink:href="#DejaVuSans-30"/>
      <use x="1036.931641" xlink:href="#DejaVuSans-2e"/>
      <use x="1068.71875" xlink:href="#DejaVuSans-38"/>
      <use x="1132.341797" xlink:href="#DejaVuSans-38"/>
      <use x="1195.964844" xlink:href="#DejaVuSans-33"/>
      <use x="1259.587891" xlink:href="#DejaVuSans-29"/>
     </g>
    </g>
   </g>
  </g>
 </g>
 <defs>
  <clipPath id="pac9fcdec19">
   <rect height="217.44" width="334.8" x="54" y="34.56"/>
  </clipPath>
 </defs>
</svg>
